<?xml version="1.0" encoding="UTF-8"?>
<svg id="Capa_1" data-name="Capa 1" xmlns="http://www.w3.org/2000/svg" viewBox="0 0 595.28 841.89">
  <defs>
    <style>
      .cls-1 {
        fill: #666;
      }

      .cls-1, .cls-2 {
        stroke-width: 0px;
      }
    </style>
  </defs>
  <path class="cls-2" d="m498.88,734.49c-25.62-42.22-37.2-92.98-31.73-142.12,0,0,.7-5.68.7-5.68l1.09-5.62c.27-1.75.78-3.92,1.25-5.59,0,0,1.5-5.54,1.5-5.54.75-2.63,1.92-5.52,2.77-8.15.67-1.64,2.56-6.2,3.31-7.94,0,0,2.52-5.15,2.52-5.15,5.09-10.2,11.29-19.88,17.25-29.56,10.03-16.06,19.25-32.57,26.57-50.01,29.7-69.45,48.07-150.02,14.87-221.57-37.95-81.21-126.25-134.06-214.82-137.49-71.03-2.81-144.36,24.49-192.23,77.81-1.92,2.09-5.52,6.36-7.28,8.57-7.14,8.68-12.45,18.54-17.36,28.66-15.91,34.28-30.72,81.44-30.69,119.33.06,3.7.44,7.37,1.19,10.88,1.31,6.95,6.1,12.95,9.28,20.22,3.34,7.26,4.08,15.63,2.75,23.49-1.34,7.8-4.84,14.87-8.42,21.76-3.61,6.76-7.47,13.31-11.35,19.84-6.79,11.26-16.67,27.96-23.89,38.82-3.85,6.05-8.17,12.46-7.69,19.78.51,4.92,2,10.59,6.93,12.7,8.6,3.71,19.82,1.37,27.34,8.15,3.13,2.81,5.06,6.76,5.71,10.86,1.32,7.95-4.94,14.9-6.38,22.07-2.03,11.67,10.83,18.04,20.29,20.91,0,0,3.28,1.03,3.28,1.03l-3.05,1.57c-2.48,1.28-4.89,2.63-6.8,4.4-2.84,2.56-4.32,6.51-3.61,10.25,1,3.97,4.23,6.53,7.07,9.53,9.06,8.61,13.78,19.65,9.37,31.92-1.75,5.38-3.7,10.58-3.98,16.22-.2,5.48.86,11.04,3.02,16.17,6.39,15.16,20.16,28.43,36.76,31.16,22.06,2.98,36.4-17.72,65.88-11.9,16.97,3.16,31.41,13.99,42.82,26.46-15.11-16.39-36.76-29.52-59.78-26.11-11.37,1.44-21.32,7.34-32.05,11.03-11.17,4.07-23.23,2.34-33.21-4.06-14.48-9.07-25.92-25.25-25.6-42.84.2-5.8,2.19-11.39,3.9-16.8,2.82-8.18,1.51-16.2-3.53-23.17-3.6-5.36-9.43-8.85-12.53-14.74-2.37-5.09-.49-11.46,3.56-15.15,2.26-2.11,4.86-3.55,7.4-4.89l.23,2.61c-3.69-1.14-7.34-2.53-10.79-4.43-7.1-3.72-13.46-11.13-11.67-19.73,1.61-8.66,9.27-15.87,5.15-24.77-4.92-12.21-20.27-8.1-30.29-12.64-6.06-2.6-8.5-9.46-9.01-15.58-.64-8.23,3.99-15.47,8.12-22.01,2.05-3.21,4.1-6.38,6.09-9.59,9.1-15.15,20.29-33.49,28.6-49.01,7.09-13,11.88-27.5,5.38-41.57-1.48-3.32-3.37-6.51-5.22-9.91-6.17-10.3-6.19-22.79-5.49-34.39,3.38-38.1,14.65-75.25,30.55-109.95,5.71-12.15,12.67-23.9,21.55-34.08,48.7-57.26,125.39-86.91,199.84-83.8,90.46,3.58,180.01,57.56,218.52,140.61,33.37,72.59,14.44,154.37-16.11,224.49-7.47,17.51-16.92,34.18-27.08,50.2-6.02,9.64-12.27,19.11-17.44,29.22,0,0-2.54,5.05-2.54,5.05-.76,1.88-2.66,5.93-3.34,7.78-.91,2.53-2,5.43-2.81,7.98,0,0-1.53,5.43-1.53,5.43-.94,3.32-1.72,7.67-2.42,11.03,0,0-.74,5.61-.74,5.61-5.93,48.88,5.15,99.48,30.02,141.91h0Z"/>
  <path class="cls-1" d="m286.36,445.9c-7.25-14.31-9.02-31.29-4.37-46.71,5.55-20.62,20.25-38.87,43.73-35.1,16.28,2.98,31.07,14.96,36.71,30.62,5.32,15.65,2.82,32.28.85,48.28-1.88,12-5.15,23.95-10.9,34.71-3.5,6.17-9.24,14.08-13.15,20.03-3.37,4.93-6.72,9.91-10.42,14.64-1.91,2.4-4.02,4.94-6.63,6.75-6.61,4.08-14.53,7.07-22.38,5.99-17.13-3.38-17.68-27.02-16.34-40.72.7-7.93,2.31-15.72,3.94-23.49-2.14,15.39-4.62,31.68-.42,46.82,2.33,8.17,8.11,15.5,17.37,14.25,2.79-.33,5.51-1.04,8.14-2.09,3.4-1.41,6.88-2.96,9.48-5.62,5.12-5.58,9.3-12.6,13.62-18.95,4.86-7.79,11.61-16.64,15.11-25.05,5.45-12.56,7.85-26.08,9.05-39.67.8-7.72,1.38-15.52.53-23.2-1.32-15.67-10.72-28.47-24.64-35.51-30.44-14.85-49.63,11.71-54.03,39.4-1.68,11.69.2,23.71,4.76,34.64h0Z"/>
  <path class="cls-1" d="m302.02,440.62c-3.29.99-5.58,3.41-3.35,6.66,1.74,2.76,3.57,5.82,4.06,9.2,1.06,6.85-1.79,13.87-5.8,19.2-.4.6-.57,1.11-.53,1.21.4,1.11,2.11,1.96,3.45,2.08,2.78.31,3.43-1.89,4.67-4.34,1.8-4.16,5.28-8.35,9.97-9.52,2.33-.67,5.25-.11,7.18-.74,2.47-.68,4.88-2.4,6.7-4.58,3.7-4.42,5.56-10.44,4.3-16.19-2.01-8.87-8.48-16.86-16.86-20.57-2.96-1.46-5.82-3.21-8.44-5.18-2.55-2.01-5.48-3.61-7.69-6.02,2.57,2.02,5.67,3.16,8.45,4.85,2.82,1.59,5.66,2.99,8.67,4.09,3.09,1.09,6.33,2.72,8.89,4.87,11.48,9.17,16.58,25.05,6.43,37.27-3.44,4.34-8.92,7.27-14.58,6.75-4.36-.04-7,3.41-8.81,7.07-1.05,2.18-3.09,5.81-6.17,6.39-4.67,1.38-12.24-2.78-9.64-8.36,1.04-1.92,2.64-3.44,3.64-5.12,2.39-3.83,4.03-8.37,3.75-12.9-.09-1.5-.4-3-.94-4.45-.74-2.28-2.36-4.43-2.61-6.96-.21-2.91,2.91-4.44,5.27-4.73h0Z"/>
  <path class="cls-1" d="m313.51,437.94c-6.12-5.61-10.75-12.92-13.51-20.74-1.47-3.88-2.74-8-3-12.38-.99-14.4,10.88-24.58,23.98-27.63,6.61-1.63,14.52.41,19.22,5.57,4.42,4.83,7.55,10.3,10.66,15.98,8.55,16.48,6,32.8-.04,49.56-4.27,11.72-10.92,22.64-19.31,31.77,4.73-6.76,8.85-13.88,12.05-21.37,4.63-11.09,7.94-23.1,8.43-35.11.1-7.88-1.86-15.65-5.48-22.64-1.82-3.49-4.14-6.97-6.32-10.24-2.11-3.1-4.44-6.08-7.77-7.72-9.37-4.72-24.11,2.41-29.21,10.89-4.24,6.78-3.26,15.09-.89,22.52,2.12,7.93,5.92,15.21,11.19,21.52h0Z"/>
  <path class="cls-1" d="m298.64,402.89c2.76,1.31,5.24,2.98,7.96,4.26,4.55,2.01,9.35,3.16,14.25,4.18-8.27,1.51-16.9-2-22.21-8.43h0Z"/>
</svg>