<?xml version="1.0" encoding="UTF-8"?>
<svg id="Capa_1" data-name="Capa 1" xmlns="http://www.w3.org/2000/svg" viewBox="0 0 595.28 417.57">
  <defs>
    <style>
      .cls-1 {
        stroke-width: 0px;
      }
    </style>
  </defs>
  <path class="cls-1" d="m107.5,34.98c.44,15.73,4.92,37.26,16.02,48.84,4.63,4.81,10.27,10.21,17.44,9.28,3.42-.38,6.57-2.26,9.15-4.65-2.26,2.71-5.38,4.87-8.99,5.62-7.56,1.52-14-3.93-18.97-8.94-11.75-11.83-16.07-34-14.66-50.15h0Z"/>
  <path class="cls-1" d="m174.63,115.79c14.46,52.19,18.35,119.46-6.5,168.94-3.8,7.31-8.2,14.3-13.4,20.61,4.29-6.96,8.05-14.18,11.17-21.65,21.21-51.92,16.78-113.43,8.73-167.91h0Z"/>
  <path class="cls-1" d="m145.58,92c5.66,19.06,8.82,38.83,10.64,58.61,2.9,19.23,15.39,36.72,27.37,51.62-3.47-3.56-6.72-7.33-9.85-11.21-9.09-11.79-17.35-25.17-19.51-40.16-1.75-19.83-4.52-39.38-8.66-58.86h0Z"/>
  <path class="cls-1" d="m204.79,236.8c-7.96,23.15-21.52,44.58-38.89,61.95-17.4,17.51-39.47,29.46-60.6,41.54-14.21,7.89-28.85,15.55-44.52,20.1,14.94-6.51,28.74-14.95,42.55-23.46,12.07-7.66,29.47-17.94,40.81-26.24,26.3-18.76,46.4-44.93,60.66-73.89h0Z"/>
  <path class="cls-1" d="m487.78,34.98c1.41,16.13-2.91,38.33-14.66,50.15-4.96,5-11.41,10.46-18.97,8.94-3.61-.75-6.73-2.91-8.99-5.62,2.58,2.4,5.73,4.28,9.15,4.65,7.17.92,12.81-4.47,17.44-9.28,11.09-11.56,15.58-33.1,16.02-48.84h0Z"/>
  <path class="cls-1" d="m420.64,115.79c-8.05,54.46-12.48,115.99,8.73,167.91,3.12,7.47,6.87,14.69,11.17,21.65-5.2-6.32-9.6-13.31-13.4-20.61-24.85-49.47-20.97-116.73-6.51-168.94h0Z"/>
  <path class="cls-1" d="m449.69,92c-4.14,19.49-6.9,39.03-8.66,58.86-2.16,14.99-10.42,28.37-19.51,40.16-3.13,3.88-6.38,7.65-9.85,11.21,11.99-14.91,24.47-32.36,27.37-51.62,1.81-19.78,4.98-39.55,10.64-58.61h0Z"/>
  <path class="cls-1" d="m390.49,236.8c14.26,28.96,34.36,55.12,60.66,73.88,11.27,8.26,28.82,18.63,40.8,26.24,13.81,8.51,27.61,16.95,42.54,23.46-15.67-4.55-30.31-12.2-44.52-20.1-21.13-12.08-43.2-24.03-60.6-41.54-17.37-17.37-30.93-38.81-38.89-61.95h0Z"/>
</svg>