<?xml version="1.0" encoding="UTF-8"?>
<svg id="Capa_1" data-name="Capa 1" xmlns="http://www.w3.org/2000/svg" viewBox="0 0 595.28 417.57">
  <defs>
    <style>
      .cls-1 {
        fill: #666;
      }

      .cls-1, .cls-2 {
        stroke-width: 0px;
      }
    </style>
  </defs>
  <path class="cls-2" d="m166.78,97.51c4.07,32.45,7.1,65.06,7.89,97.78.27,18.16-.39,32.43-10.22,48.41-5.05,8.68-11.85,16.34-19.27,23-9.74,9.03-20.93,16.64-33.08,21.95-30.11,12.71-59.84,25.87-88.58,41.63,21.97-14.17,45.07-26.68,68.95-37.46,11.87-5.5,24.01-10.31,34.47-17.64,12.92-9.25,25.04-20.31,33.26-34.01,9.29-14.74,10.02-28.91,10.09-45.87-.1-32.61-2-65.17-3.52-97.79h0Z"/>
  <path class="cls-1" d="m49.65,353.6c12.29,6.59,25.15,11.69,38.59,15.38-13.99-.94-27.79-6.44-38.59-15.38h0Z"/>
  <path class="cls-1" d="m173.88,238.62c1.69,24.07-5.99,48.64-20.62,67.78-2.13,2.7-4.33,5.35-6.72,7.8,16.76-21.61,26.4-48.24,27.34-75.58h0Z"/>
  <path class="cls-2" d="m428.5,97.51c-1.51,32.62-3.42,65.18-3.52,97.79.08,16.98.8,31.11,10.09,45.87,8.22,13.7,20.34,24.76,33.26,34.01,10.46,7.33,22.59,12.13,34.47,17.64,23.88,10.78,46.98,23.29,68.95,37.46-28.74-15.76-58.47-28.92-88.58-41.63-12.15-5.31-23.34-12.92-33.08-21.95-7.42-6.66-14.21-14.33-19.27-23-9.83-15.99-10.48-30.26-10.22-48.41.79-32.72,3.81-65.33,7.89-97.78h0Z"/>
  <path class="cls-1" d="m545.62,353.6c-10.8,8.94-24.6,14.44-38.59,15.38,13.45-3.69,26.31-8.79,38.59-15.38h0Z"/>
  <path class="cls-1" d="m421.4,238.62c.94,27.34,10.58,53.97,27.34,75.58-2.4-2.46-4.59-5.1-6.72-7.8-14.63-19.14-22.31-43.71-20.62-67.78h0Z"/>
  <path class="cls-2" d="m457.18,48.59c-12.59,36.84-38.65,68.59-73.12,87.02-2.04,1.22-6.4,3.53-8.3,4.73-8.36,5.11-17.36,9.26-26.81,11.99-33.33,9.81-69.26,9.53-102.61.01-10.54-2.93-20.26-7.93-29.53-13.58-9.35-5.18-18.83-10.72-27.27-17.31-10.3-7.86-19.38-17.34-27.22-27.61-10.45-13.71-18.63-29.07-24.21-45.25,6.61,15.78,15.3,30.64,26.13,43.73,10.68,13.18,23.51,24.49,37.98,33.32,5.15,3.23,11.3,6.43,16.68,9.38,9.04,5.34,18.56,10.11,28.72,12.77,32.65,8.99,67.42,9.26,100.04,0,9.07-2.48,17.78-6.35,25.89-11.17,2.17-1.22,6.31-3.51,8.49-4.66,34.31-17.4,60.56-47.92,75.15-83.37h0Z"/>
</svg>