<?xml version="1.0" encoding="UTF-8"?>
<svg id="Capa_1" data-name="Capa 1" xmlns="http://www.w3.org/2000/svg" viewBox="0 0 595.28 417.57">
  <defs>
    <style>
      .cls-1 {
        fill: #666;
      }

      .cls-1, .cls-2 {
        stroke-width: 0px;
      }
    </style>
  </defs>
  <path class="cls-2" d="m556.27,350.8c-22.03-33.99-45.29-67.12-71.78-97.73-8.88-10.23-18.16-20.31-25.72-31.66-3.81-5.66-7.23-11.61-10.53-17.54-16.85-29.41-29.23-63.12-25.58-97.48,1.39-13.58,5.08-26.87,10.86-39.09-4.76,12.65-7.73,25.91-8.42,39.29-2.04,33.95,10.72,65.96,27.4,94.9,3.3,5.85,6.66,11.6,10.42,17.14,7.36,11.24,16.47,21.09,25.16,31.38,26.12,31.12,48.77,65.18,68.2,100.8h0Z"/>
  <path class="cls-1" d="m530.01,351.88c-14.92-7.83-30.35-14.39-46.3-19.39-32.67-11.25-63.95-16.06-97.29-4.82-15.76,5.17-30.5,13.38-44.02,23.4,22.85-22.08,54.72-35.53,86.76-34.78,14.99.28,29.75,3.53,43.88,8.29,20.08,6.56,39.7,15.17,56.97,27.29h0Z"/>
  <path class="cls-1" d="m268.42,303.63c2.45,16.24,0,33.36-6.97,48.24,4.31-15.78,6.64-31.89,6.97-48.24h0Z"/>
  <path class="cls-1" d="m287.19,65.1c-22.11,45.06-63.85,79.42-111.24,95.23-6.78,2.22-13.65,4.14-20.63,5.54,6.67-2.47,13.28-5.01,19.75-7.84,45.69-19.36,84.59-51.63,112.12-92.94h0Z"/>
  <path class="cls-2" d="m81.08,84.8c-4.77.7-9.75.4-14.4-1.16-2.25-.68-4.3-2.28-6.62-2.45-2.26-.12-4.47.86-6.3,2.24-7.09,5.6-10.18,16.79-5.68,24.82,1.31,2.02,2.76,2.49,5.06,2.14,5.53-.18,10.34,3.27,13.17,7.81,4.1,7.18-1.62,14.89-2.67,22.03-1.8,9.01-1.53,18.82,1.84,27.38,3.26,8.66,10.74,14.76,19.27,17.97,4.23,1.78,8.62,2.46,13.26,2.24,9.4-.39,18.9-2.28,28.11-4.36,9.39-2.13,18.61-4.68,27.89-7.33,4.67-1.26,9.44-2.65,14.62-3.06,5.11-.39,10.2.28,15.13,1.48,7.33,1.83,14.33,4.9,20.51,9.32,10.06,7.61,15.25,19.75,20.76,30.62,4.12,8.81,8.17,17.64,11.42,26.81,6.57,18.21,12.66,36.51,18.85,54.81,1.52,4.59,3.02,9.23,4.09,13.99,2.25,9.49,2.19,19.58-.45,28.97-1.31,4.68-3.19,9.18-5.52,13.41,9.3-19.44,7.42-36.19-.43-55.56-10.05-26.24-19.38-55.54-31.91-80.53-5.33-10.16-10.34-21.62-19.64-28.65-7.51-5.28-16.52-8.65-25.65-9.64-7.04-.88-13.51.87-20.44,2.83-11.64,3.28-23.42,6.42-35.3,8.8-7.27,1.38-14.45,2.62-21.93,2.8-5.06.19-10.32-.66-15.03-2.73-9.44-3.63-18.07-10.94-21.5-20.68-3.51-9.52-3.6-19.87-1.46-29.66.54-2.44,1.31-4.83,2.11-7.13,1.34-4.2,3.67-8.49,1.41-12.63-2.05-3.59-6.16-6.75-10.41-6.67-1.2.1-2.99.15-4.16-.54-1.36-.68-2.36-1.8-3.06-2.97-4.78-9.18-1.13-21.18,6.97-27.17,2.05-1.42,4.56-2.45,7.17-2.21,2.56.28,4.48,1.96,6.8,2.78,4.43,1.75,9.34,2.31,14.14,1.86h0Z"/>
  <path class="cls-2" d="m39.15,67.28c3.59,4.61,6.36,9.03,10.45,12.97,1.35,1.19,2.46,2.34,4.51,1.99,0,0,.19.23.19.23-4.91,3.61-12.11-5.16-13.81-9.3-.85-1.85-1.46-3.82-1.64-5.86l.3-.03h0Z"/>
</svg>