<?xml version="1.0" encoding="UTF-8"?>
<svg id="Capa_1" data-name="Capa 1" xmlns="http://www.w3.org/2000/svg" viewBox="0 0 595.28 841.89">
  <defs>
    <style>
      .cls-1 {
        fill: #666;
      }

      .cls-1, .cls-2 {
        stroke-width: 0px;
      }
    </style>
  </defs>
  <path class="cls-2" d="m135.08,506.34c-2.72,6.84-4.73,13.94-6.15,21.13-7.51,2.3-15.44,2.5-23.23,2.58-23.12-.18-46.97-6.19-65.41-20.66,0,0-1.12-.87-1.12-.87l.61-1.33c5.73-12.79,9.53-26.61,11.99-40.42,3.21-17.97,1.55-36.14,3.07-54.72,3.28-42.83,20.34-82.94,61.78-101.04,22.33-10.22,45.65-17.91,68.34-27.06,14.97-6.2,30.3-12.16,44.93-19.08,14.95-7.04,26.5-18.84,33.25-33.99-3.08,7.54-7.2,14.76-12.76,20.85-11.08,12.36-27,18.7-41.76,25.38-22.15,10.33-45.13,19.18-67.75,28.3-14.79,6.17-30.16,12.03-42.64,22.17-18.91,14.94-29.91,37.75-35.01,61-1.65,7.85-2.87,15.82-3.55,23.85-1.36,16.23-.39,32.67-2.64,48.94-2.39,16.39-6.95,32.34-13.95,47.37,0,0-.51-2.2-.51-2.2,17.68,14.38,40.65,20.68,63.16,21.72,7.52.21,15.28.25,22.61-1.63,0,0-.32.36-.32.36,1.65-7.12,4.07-14.03,7.05-20.66h0Z"/>
  <path class="cls-2" d="m109.18,434.66c10.92,19.83,20.06,40.91,25.57,62.96,1.93,7.33,3.36,14.76,5.75,21.72,1.83,6.03,6.63,14.46,9.49,20.19,3.42,6.75,6.79,13.54,9.8,20.56,3.81,8.8,6.89,18,8.55,27.48.61,3.7,1.68,13.1,2.16,16.97,1.66,15.08,3.16,30.14,3.39,45.35.12,9.38-.19,19.49-3.79,28.59-.24.63-.55,1.8-.67,2.47-.71,3.47-.18,7.05.22,10.56,1.08,9.56,1.78,19.41-.75,28.84-.89,2.7-1.99,5.43-3.03,8.07-7.91,17.07-11.58,35.92-9.69,54.72-2.55-15.04-1.25-30.49,3.07-45.1,1.22-3.63,2.69-7.05,3.94-10.64.91-2.59,1.89-5.27,2.66-7.92,2.24-9.93.9-20.29-.52-30.26-.41-2.97-.64-6.1-.06-9.07.15-.86.47-2.15.76-3,3.25-8.64,3.39-17.79,3.14-27.19-.37-14.93-1.94-29.92-3.62-44.86-.82-6.39-1.56-15.93-3.12-22.12-3.36-14.48-9.86-28.11-16.34-41.51-2.87-5.86-7.54-14.63-9.28-20.93-2.11-6.64-3.72-15.4-5.23-22.17-4.72-22.11-12.92-43.18-22.39-63.72h0Z"/>
  <path class="cls-1" d="m157.63,327.28c18.64,5.81,38.36,10.7,57.58,14.42-19.85-1.01-39.59-5.96-57.58-14.42h0Z"/>
  <path class="cls-1" d="m242.39,350.52c3.55,4.31,5.17,10.26,4.25,15.77-1.86-5.19-3.24-10.35-4.25-15.77h0Z"/>
  <path class="cls-1" d="m251.57,391.45c7.72,26.51,3.9,56.19-10.2,79.94-4.65,7.95-10.42,15.21-17.03,21.53,6.05-6.86,11.32-14.34,15.68-22.3,13.25-23.94,16.97-52.43,11.56-79.17h0Z"/>
  <path class="cls-1" d="m239.28,707.05c6.46,3.37,10.81,10.76,10.58,18.05-2.56-6.64-6.03-12.58-10.58-18.05h0Z"/>
  <path class="cls-1" d="m297.79,463.5c1.34,80.31,1.35,161.52,0,241.83-1.35-80.31-1.34-161.52,0-241.83h0Z"/>
  <path class="cls-1" d="m298.21,298.96c1.37,36.3,1.38,72.64,0,108.93-1.38-36.3-1.37-72.64,0-108.93h0Z"/>
  <path class="cls-2" d="m460.19,506.34c2.98,6.63,5.4,13.54,7.05,20.66l-.32-.36c7.33,1.87,15.08,1.83,22.61,1.63,22.51-1.03,45.48-7.33,63.16-21.72,0,0-.51,2.2-.51,2.2-6.99-15.04-11.56-30.98-13.95-47.37-2.25-16.27-1.28-32.71-2.64-48.94-.68-8.03-1.9-16-3.55-23.85-5.1-23.24-16.1-46.06-35.01-61-12.48-10.15-27.85-16-42.64-22.17-22.62-9.13-45.61-17.97-67.75-28.3-14.76-6.68-30.68-13.01-41.76-25.38-5.56-6.09-9.68-13.31-12.76-20.85,3.43,7.4,7.91,14.31,13.54,20.12,5.58,5.88,12.52,10.22,19.71,13.87,14.64,6.92,29.97,12.87,44.93,19.08,22.69,9.15,46.02,16.84,68.34,27.06,41.42,18.08,58.51,58.23,61.77,101.04,1.52,18.58-.14,36.74,3.07,54.71,2.46,13.81,6.26,27.64,11.99,40.42,0,0,.61,1.33.61,1.33l-1.12.87c-18.44,14.47-42.29,20.48-65.41,20.66-7.79-.08-15.72-.28-23.23-2.58-1.43-7.19-3.43-14.29-6.15-21.13h0Z"/>
  <path class="cls-2" d="m486.09,434.66c-9.47,20.54-17.67,41.61-22.39,63.72-1.52,6.82-3.14,15.62-5.23,22.17-1.73,6.32-6.37,14.95-9.28,20.93-6.48,13.39-12.98,27.03-16.34,41.51-1.55,6.14-2.31,15.71-3.12,22.12-1.69,14.94-3.26,29.94-3.62,44.86-.26,9.4-.12,18.54,3.14,27.19.28.82.62,2.13.76,3,.77,3.94.1,8.04-.46,11.94-1.27,9.02-2.14,18.44-.13,27.4.77,2.64,1.75,5.32,2.66,7.92,1.25,3.59,2.72,7.01,3.94,10.64,4.32,14.61,5.62,30.07,3.07,45.1,1.88-18.8-1.78-37.65-9.69-54.72-1.04-2.64-2.15-5.37-3.03-8.07-2.53-9.43-1.83-19.28-.75-28.84.4-3.51.93-7.09.22-10.56-.11-.7-.44-1.78-.67-2.47-3.59-9.1-3.91-19.2-3.79-28.59.23-15.21,1.74-30.27,3.39-45.35.49-3.81,1.53-13.22,2.16-16.97,1.66-9.48,4.74-18.68,8.55-27.48,3.01-7.01,6.38-13.81,9.8-20.56,2.83-5.59,7.65-14.18,9.49-20.19,2.39-6.96,3.82-14.4,5.75-21.72,5.5-22.05,14.64-43.13,25.57-62.96h0Z"/>
  <path class="cls-1" d="m437.64,327.28c-17.99,8.46-37.73,13.41-57.58,14.42,19.23-3.72,38.92-8.61,57.58-14.42h0Z"/>
  <path class="cls-1" d="m352.88,350.52c-1.02,5.42-2.4,10.58-4.25,15.77-.91-5.51.71-11.46,4.25-15.77h0Z"/>
  <path class="cls-1" d="m343.7,391.45c-5.41,26.74-1.69,55.23,11.56,79.17,4.36,7.96,9.63,15.44,15.68,22.3-6.61-6.32-12.39-13.58-17.03-21.53-14.1-23.75-17.92-53.43-10.2-79.94h0Z"/>
  <path class="cls-1" d="m356,707.05c-4.55,5.47-8.02,11.41-10.58,18.05-.23-7.29,4.12-14.69,10.58-18.05h0Z"/>
  <path class="cls-2" d="m350.51,256.37c-1.68-11.31-2.18-22.79-1.43-34.21.48-7.51,1.59-14.97,3.09-22.35.08-1.11,1.5-1.57,2.19-.71,1.83,2.3,4.02,6.3,7.44,4.91,5.02-2.01,5.11-9.02,6.42-13.77,1.37-5.49,3.74-10.81,4.87-16.38.87-4.15,3.63-16.17-1.7-17.71-.23-.08-.31-.05-.7.04-1.78.53-3.47,1.63-5.09,2.68-.94.64-1.83,1.5-3.09.91-.65-.28-1.16-1.01-1.18-1.76.07-.95.1-.62.1-.74l.03-.13.07-.25.53-2.03c8.37-32.08-1.21-70.57-32.53-86.21-9.93-4.96-20.69-7.63-31.89-7.4-51.42.07-76.22,47.09-64.41,93.61.07.32.57,2.15.63,2.41,0,.12.03-.21.1.75-.02.75-.53,1.48-1.18,1.76-.65.32-1.5.21-1.99-.14l-.26-.19-.84-.58c-1.77-1.1-3.65-2.45-5.61-2.77-2.44.44-3.1,3.26-3.27,5.57-.48,9.85,3.69,19.25,6.27,28.57,1.3,4.75,1.41,11.75,6.41,13.76,3.21,1.34,5.46-2.27,7.14-4.53.09-.11.2-.26.3-.37.45-.62,1.56-.6,1.99.11,4.24,18.63,4.65,38.24,1.86,57.16,1.87-18.4.88-37.09-3.42-55.08,0,0-.24-1.04-.24-1.04l-.03-.13c.18.53.88.87,1.42.34,0,0-.06.08-.06.08-.04.06-.08.1-.13.18-1.24,1.84-2.49,3.82-4.54,5.09-3.01,1.94-7.14.35-9.1-2.36-3.53-4.88-3.46-11.13-5.6-16.44-2.97-8.03-8.74-23.72-4.1-31.55.95-1.55,2.61-2.6,4.38-2.98,1.63-.28,3.15.37,4.48.96,1.75.83,3.32,1.8,4.88,2.85,0,0,.17.12.17.12-.42-.3-1.17-.41-1.74-.12-.57.25-1.02.89-1.04,1.55.06.87.07.45.04.49l-.04-.13-.07-.26c-14.68-49.89,12.05-101.41,67.6-101.68,54.6.35,81.56,49.97,68.19,99.58-.07.33-.63,2.22-.69,2.5-.03-.04-.02.38.04-.48-.02-.66-.47-1.3-1.04-1.55-.56-.28-1.31-.18-1.73.12l.17-.12.93-.62c2.55-1.48,5.23-3.53,8.43-3.2,1.28.3,2.58.9,3.49,1.87,4.57,5.15,2.18,14.29.84,20.28-1.29,5.61-3.7,10.76-5.26,16.28-.69,2.71-1.22,5.55-2.22,8.39-1.35,4.61-6.28,9.4-11.26,6.49-2.17-1.33-3.36-3.42-4.73-5.34-.09-.1.16.18.32.21.38.14.79-.01.99-.32.11-.18.13-.34.1-.22l-.03.13-.24,1.04c-4.3,17.99-5.29,36.69-3.42,55.08h0Z"/>
</svg>