<?xml version="1.0" encoding="UTF-8"?>
<svg id="Capa_1" data-name="Capa 1" xmlns="http://www.w3.org/2000/svg" viewBox="0 0 595.28 841.89">
  <defs>
    <style>
      .cls-1 {
        fill: #666;
      }

      .cls-1, .cls-2 {
        stroke-width: 0px;
      }
    </style>
  </defs>
  <path class="cls-2" d="m236.33,141.27c1.18,4.95,1.59,10.4-.31,15.24-1.63,3.39-4.7,5.78-7.48,8.14-11.52,9.11-24.37,16.41-36.81,24.09-6.19,3.79-12.33,8.03-18.84,11.42-14.2,7.77-29.4,13.7-44.61,19.06-5.39,1.98-10.91,3.61-15.65,6.89-10.7,7.16-19.03,17.54-25.32,28.71-13.63,24.02-18.81,51.78-21.12,79.06,0,0-.46-1.62-.46-1.62,7.63,9.57,18.37,16.77,29.38,21.95,12.43,4.97,23.89,12.35,33.94,21.09-.77,15.6-.14,31.72,5.91,46.24,1.24,3.21,4.23,11.37,5.43,14.68,4.65,13.12,8.74,26.48,12.15,39.98,1.66,6.56,5.77,23.76,7.75,30.14,3.09,10,5.92,20.26,6.89,30.74.75,7.02.61,14.13.12,21.08-.17,2.47-.56,7.92-.79,10.42-.69,6.98-2.06,13.99-4.24,20.65-1.05,3.33-2.11,6.56-2.84,9.88-1.41,6.6-1.99,13.56-1.63,20.29.2,3.39.89,6.71,1.56,10.14,2.47,10.41-.45,21.33-5.16,30.66-5.91,12.46-8.54,26.4-8.03,40.26-1.04-13.86,1.19-28.04,6.85-40.77,2.81-6.27,5.11-12.77,5.32-19.67.44-6.97-2.35-13.47-2.92-20.42-.91-10.51.71-21.26,3.96-31.23,2.55-8.12,3.65-16.74,4.07-25.23.53-8.54.95-17.22-.1-25.65-.73-6.77-2.24-13.45-4.1-20.03-6.23-18.93-10.76-41.01-16.79-60.01-4.05-12.98-9.06-26.37-13.91-39.11-4.56-13.59-5.11-27.92-4.55-42.05,0,0,.89,2.02.89,2.02-7.23-6.05-14.82-11.49-23.23-15.69-2.5-1.27-6.02-2.8-8.61-3.93-8.96-4.14-17.18-9.57-24.46-16.21-2.63-2.42-5.15-5.1-7.32-8.09,2-23.86,6.36-47.79,16.25-69.77,7.93-17.57,19.81-34.44,37.08-43.83,14.93-6.17,30.68-10.25,45.27-17.18,10.75-4.68,20.73-10.55,30.8-16.61,12.66-7.36,25.58-14.27,37.3-23.04,2.78-2.27,5.83-4.46,7.53-7.66,2.02-4.71,1.79-10.08.8-15.03h0Z"/>
  <path class="cls-1" d="m163.3,635.57c4.07,8.57,8.37,16.59,14.12,23.96,5.84,7.36,13.05,14.03,17.04,22.77,2.85,5.79,4.85,11.98,5.56,18.32-4.04-8.57-8.5-16.51-14.34-23.79-3.87-4.83-8.59-9.29-12.1-14.51-5.45-7.93-9.14-17.24-10.29-26.75h0Z"/>
  <path class="cls-1" d="m180.52,226.96c1.12,11.87-7.08,23.94-18.47,27.39,9.87-6.05,16.62-15.94,18.47-27.39h0Z"/>
  <path class="cls-1" d="m241.11,145.83c4.87,13.46,5.11,28.73.62,42.33,1.72-14.12,1.52-28.26-.62-42.33h0Z"/>
  <path class="cls-1" d="m269.12,152.68c3.81,11.74,7.54,23.39,11.2,35.17-6.22-10.7-10.08-22.84-11.2-35.17h0Z"/>
  <path class="cls-1" d="m280.95,197.5c3.07,12.6,7.09,24.78,12.14,36.73-7.52-10.65-11.81-23.7-12.14-36.73h0Z"/>
  <path class="cls-1" d="m271.3,229.56c4.62.36,9.23,2.83,11.78,6.8.63.98,1.19,1.87,1.85,2.72,2,2.66,4.42,4.81,7.11,6.88-2.19-.65-4.25-1.79-6.06-3.25-1.81-1.41-3.35-3.34-4.56-5.23-2.37-3.75-6.12-6.03-10.12-7.91h0Z"/>
  <path class="cls-1" d="m177.2,215.97c14.22.2,28.39,2.71,42.06,6.53,13.66,3.7,27.86,4.42,41.97,3.63-10.52,1.78-21.38,2.02-31.96.47-10.55-1.6-20.64-5.32-31.11-7.2-6.93-1.38-13.92-2.53-20.96-3.43h0Z"/>
  <path class="cls-1" d="m116.4,330.71c9.48,13.32,17.24,27.93,23.29,43.2,3.14,7.58,5.52,15.45,9.15,22.41,3.6,6.96,8.72,13.12,14.56,18.32,18.23,17.16,45.23,13.66,67.64,8.13,7.84-2.05,15.73-4.28,23.13-7.62-6.98,4.32-14.71,7.27-22.44,9.98-7.8,2.58-15.83,4.63-24.07,5.68-17.63,2.39-33.98-.18-47.56-12.42-6.22-5.67-11.77-12.37-15.48-19.95-3.29-6.6-6.11-16.23-8.57-23.17-5.28-15.4-11.97-30.19-19.65-44.56h0Z"/>
  <path class="cls-1" d="m258.74,411.84c17.83-11.31,30.3-29.52,34.44-50.21-1.24,21.26-15.06,41.4-34.44,50.21h0Z"/>
  <path class="cls-1" d="m181.27,393.89c.18,1.67.63,2.25,1.32,2.94.16.99.25,1.71,1.41,2.97-1.36,2.44-4.94,1.51-5.93-.84-1.19-2.28.46-5.67,3.21-5.07h0Z"/>
  <path class="cls-1" d="m189.36,397.08c.1,7.26-8.91,11.33-14.29,6.27-3.61-3.19-3.61-9.37,0-12.55,5.38-5.06,14.39-.99,14.29,6.28h0Zm0,0c.02-6.86-8.56-10.11-13.07-5.06-4.23,4.51-1.15,12.22,5.06,12.57,4.16.41,8.11-3.3,8.01-7.52h0Z"/>
  <path class="cls-1" d="m151.47,420.56c1.7,6.53,4.42,12.66,9.1,17.54,4.71,4.91,8.94,10.53,11.44,16.91-3.94-5.61-8.12-10.67-12.92-15.56-4.76-5.04-7.53-11.98-7.62-18.88h0Z"/>
  <path class="cls-1" d="m154.37,441.1c3.75,11.66,9.37,22.44,16.81,32.16-9.56-7.85-15.79-19.84-16.81-32.16h0Z"/>
  <path class="cls-1" d="m160.39,470.77c4.36,15.8,10.83,30.79,19.3,44.82-10.78-12.45-17.66-28.43-19.3-44.82h0Z"/>
  <path class="cls-1" d="m293.19,424.5c.25,7.35-3.19,14.89-8.92,19.5,3.5-6.34,6.43-12.71,8.92-19.5h0Z"/>
  <path class="cls-1" d="m282.71,455.1c-6.23.35-12.18.93-18.36,1.76,5.29-3.51,12.5-4.19,18.36-1.76h0Z"/>
  <path class="cls-1" d="m258.02,461.02c-2.69,2.19-6.71,4.91-9.54,6.95-2.89,1.99-6.77,4.84-9.76,6.64,4.78-6.38,11.69-11.23,19.3-13.59h0Z"/>
  <path class="cls-1" d="m233.22,480.31c-4.16,6.01-7.37,12.61-9.33,19.61-2.28,9.63-2.72,19.96-10.45,27.3-1.75,1.76-3.69,3.36-5.85,4.55,3.79-3.11,6.84-7,9.02-11.23,3.19-6.6,3.45-14.1,5.45-21.11,2.22-7.09,5.98-13.81,11.15-19.12h0Z"/>
  <path class="cls-1" d="m233.12,531.77c1.22-2.55,3.83-4.22,6.64-4.36-1.41,2.48-3.75,3.99-6.64,4.36h0Z"/>
  <path class="cls-1" d="m250.34,520.46c7.97-4.57,17.76-6.17,26.77-4.36-9.06.98-17.87,2.4-26.77,4.36h0Z"/>
  <path class="cls-1" d="m246.09,527.83c4.95-2.12,10.06-4.09,15.42-4.81,5.44-.41,10.84.38,16.01,2.01-5.3-.03-10.6-.49-15.83-.02-5.25.64-10.31,2.26-15.61,2.82h0Z"/>
  <path class="cls-1" d="m210.09,549.1c1.6,9.87,3.19,19.6,4.77,29.46-4.25-9.1-5.93-19.49-4.77-29.46h0Z"/>
  <path class="cls-1" d="m214.86,586.24c1.08,9.51,1.01,19.12.52,28.66-.61,9.5.54,18.89,2.59,28.19-3.63-8.89-5.13-18.7-4.59-28.29.49-8.41,1.03-20.25,1.48-28.57h0Z"/>
  <path class="cls-1" d="m219.84,649.53c4.44,9.42,7.6,19.45,9.03,29.78-2.23-4.74-3.7-9.69-5.31-14.65-1.52-4.98-2.93-9.96-3.72-15.13h0Z"/>
  <path class="cls-1" d="m239.63,616.2c9.88.91,20.59,1.18,30.5.78-9.82,3.16-20.85,2.87-30.5-.78h0Z"/>
  <path class="cls-1" d="m237.99,572.23c6.43.32,12.54-.32,18.71-2.18,6.29-1.68,13.21-1.12,19.16,1.46-6.27-.97-12.55-1.21-18.67.48-6.18,1.8-13,2.18-19.19.25h0Z"/>
  <path class="cls-1" d="m279.7,567.67c2.74-.54,5.32-.42,7.99.41-2.23,1.92-5.96,1.72-7.99-.41h0Z"/>
  <path class="cls-1" d="m293.91,573.06c4.24,10.34,4.29,22.52.1,32.89,1.43-10.98,1.41-21.91-.1-32.89h0Z"/>
  <path class="cls-1" d="m292.15,529.59c4.82,9.91,5.21,22.07,1.04,32.27,1.4-10.81,1.08-21.57-1.04-32.27h0Z"/>
  <path class="cls-1" d="m293.39,466.1c.71,7.86,1.47,15.57,2.66,23.37,1.08,7.86.37,16.07-2.35,23.52,1.12-7.76,1.5-15.51.37-23.27-1.1-7.8-1.57-15.78-.68-23.63h0Z"/>
  <path class="cls-1" d="m301.28,466.2c.21,18.31-2.71,36.46-1.24,54.78-2.14-8.96-2.5-18.29-1.87-27.46.73-9.14,1.62-18.27,3.12-27.32h0Z"/>
  <path class="cls-1" d="m301.02,537.38c.97,16.25.46,32.59-1.87,48.71-.34-7.11-.18-14.24.11-21.34.21-9.14.62-18.28,1.76-27.37h0Z"/>
  <path class="cls-1" d="m299.31,593.71c.83,2.32,1.08,4.63,1.15,7.04.23,2.39.3,4.72-.22,7.13-2-4.43-2.32-9.51-.93-14.16h0Z"/>
  <path class="cls-1" d="m296.74,626.08c1.94,4.76,1.75,10.42-.54,15.02-.45-5.06-.26-10.01.54-15.02h0Z"/>
  <path class="cls-1" d="m291.76,633.47c-2.66-6.97,7.91-11.64,11.15-4.73.85,1.88.59,4.08-.49,5.58,1.34-8.89-10.14-9.34-10.66-.86h0Z"/>
  <path class="cls-1" d="m288.03,628.57c-.19-8.89,11.89-12.38,16.92-5.22,1.53,2.1,2.09,4.78,1.6,7.16-1.4-10.86-15.08-12.44-18.52-1.95h0Z"/>
  <path class="cls-2" d="m358.94,141.27c-1,4.95-1.23,10.32.8,15.03,1.7,3.2,4.75,5.4,7.53,7.66,11.72,8.78,24.64,15.68,37.3,23.04,10.07,6.06,20.04,11.92,30.8,16.61,14.59,6.93,30.34,11.01,45.27,17.18,17.27,9.38,29.15,26.26,37.08,43.83,9.89,21.98,14.25,45.91,16.25,69.77-2.17,3-4.69,5.67-7.32,8.09-7.28,6.64-15.5,12.07-24.46,16.21-2.62,1.14-6.12,2.65-8.61,3.93-8.4,4.2-16,9.64-23.23,15.69,0,0,.89-2.02.89-2.02.57,14.12.01,28.46-4.55,42.05-4.85,12.74-9.86,26.12-13.91,39.11-6.04,19.01-10.56,41.07-16.79,60.01-1.86,6.58-3.37,13.26-4.1,20.03-1.05,8.42-.63,17.13-.1,25.65.43,8.47,1.53,17.11,4.07,25.23,3.25,9.97,4.87,20.73,3.96,31.23-.56,6.96-3.36,13.46-2.92,20.42.21,6.88,2.51,13.4,5.32,19.67,5.66,12.73,7.89,26.92,6.85,40.77.51-13.85-2.12-27.79-8.03-40.26-1.43-3.15-2.93-6.32-3.98-9.69-2.17-6.7-2.7-14.09-1.17-20.97.67-3.43,1.36-6.75,1.56-10.14.37-6.73-.22-13.69-1.63-20.29-.73-3.31-1.79-6.55-2.84-9.88-2.18-6.66-3.55-13.67-4.24-20.65-.24-2.61-.61-7.81-.79-10.42-.49-6.95-.62-14.06.12-21.08.97-10.48,3.8-20.73,6.89-30.74,1.94-6.32,6.06-23.41,7.75-30.14,3.4-13.5,7.5-26.86,12.15-39.98,1.23-3.36,4.17-11.49,5.43-14.68,6.05-14.53,6.68-30.65,5.91-46.24,10.04-8.74,21.51-16.13,33.94-21.09,11.01-5.18,21.74-12.38,29.38-21.95,0,0-.46,1.61-.46,1.61-2.32-27.28-7.49-55.04-21.12-79.06-6.29-11.16-14.62-21.55-25.32-28.71-4.75-3.27-10.26-4.92-15.65-6.89-15.21-5.35-30.4-11.29-44.61-19.06-6.51-3.39-12.65-7.62-18.84-11.42-12.45-7.67-25.29-14.98-36.81-24.09-2.78-2.37-5.85-4.75-7.48-8.14-1.89-4.84-1.48-10.28-.31-15.24h0Z"/>
  <path class="cls-1" d="m431.98,635.57c-1.15,9.51-4.84,18.81-10.29,26.75-3.51,5.22-8.23,9.68-12.1,14.51-5.84,7.28-10.3,15.22-14.34,23.79.72-6.34,2.71-12.53,5.56-18.32,3.99-8.74,11.2-15.41,17.04-22.76,5.74-7.37,10.05-15.4,14.12-23.96h0Z"/>
  <path class="cls-1" d="m414.76,226.96c1.84,11.45,8.59,21.33,18.47,27.39-11.39-3.45-19.58-15.52-18.47-27.39h0Z"/>
  <path class="cls-1" d="m354.17,145.83c-2.15,14.07-2.35,28.2-.62,42.33-4.49-13.6-4.25-28.87.62-42.33h0Z"/>
  <path class="cls-1" d="m326.16,152.68c-1.13,12.33-4.98,24.47-11.2,35.17,3.67-11.78,7.39-23.43,11.2-35.17h0Z"/>
  <path class="cls-1" d="m314.33,197.5c-.33,13.03-4.62,26.08-12.14,36.73,5.05-11.95,9.07-24.13,12.14-36.73h0Z"/>
  <path class="cls-1" d="m323.98,229.56c-4,1.88-7.75,4.16-10.12,7.91-1.21,1.89-2.75,3.82-4.56,5.23-1.81,1.47-3.87,2.6-6.06,3.25,2.69-2.07,5.11-4.22,7.11-6.88.66-.85,1.23-1.74,1.85-2.72,2.56-3.97,7.16-6.44,11.78-6.8h0Z"/>
  <path class="cls-1" d="m418.08,215.97c-7.04.9-14.03,2.05-20.96,3.43-10.47,1.88-20.56,5.6-31.11,7.2-10.59,1.55-21.45,1.31-31.96-.47,14.11.79,28.31.07,41.97-3.63,13.68-3.82,27.84-6.33,42.06-6.53h0Z"/>
  <path class="cls-1" d="m478.87,330.71c-7.68,14.37-14.36,29.17-19.65,44.56-2.51,7-5.27,16.54-8.57,23.17-3.71,7.59-9.25,14.28-15.48,19.95-13.58,12.24-29.95,14.81-47.56,12.42-8.24-1.06-16.27-3.1-24.07-5.68-7.73-2.7-15.46-5.66-22.44-9.98,7.4,3.34,15.3,5.57,23.13,7.62,22.4,5.53,49.42,9.03,67.64-8.13,5.84-5.2,10.96-11.36,14.56-18.32,3.63-6.96,6.01-14.83,9.15-22.41,6.05-15.28,13.81-29.89,23.29-43.2h0Z"/>
  <path class="cls-1" d="m336.53,411.84c-19.39-8.81-33.21-28.95-34.44-50.21,4.15,20.69,16.62,38.91,34.44,50.21h0Z"/>
  <path class="cls-1" d="m414.01,393.89c2.75-.6,4.4,2.79,3.21,5.07-.99,2.35-4.57,3.28-5.93.84,1.15-1.26,1.25-1.98,1.41-2.97.69-.69,1.13-1.27,1.32-2.94h0Z"/>
  <path class="cls-1" d="m405.91,397.08c-.02,6.86,8.57,10.12,13.07,5.06,4.24-4.46,1.11-12.26-5.06-12.57-4.16-.41-8.11,3.29-8.01,7.51h0Zm0,0c-.1-7.26,8.91-11.34,14.29-6.28,3.6,3.18,3.61,9.36,0,12.55-5.38,5.06-14.39.99-14.29-6.27h0Z"/>
  <path class="cls-1" d="m443.81,420.56c-.09,6.9-2.86,13.84-7.62,18.88-4.8,4.9-8.99,9.96-12.92,15.56,2.5-6.38,6.73-12,11.44-16.91,4.68-4.88,7.4-11.01,9.1-17.54h0Z"/>
  <path class="cls-1" d="m440.9,441.1c-1.01,12.32-7.25,24.31-16.81,32.16,7.44-9.73,13.06-20.5,16.81-32.16h0Z"/>
  <path class="cls-1" d="m434.88,470.77c-1.64,16.38-8.51,32.37-19.3,44.82,8.47-14.03,14.94-29.02,19.3-44.82h0Z"/>
  <path class="cls-1" d="m302.09,424.5c2.49,6.8,5.42,13.16,8.92,19.5-5.73-4.61-9.18-12.15-8.92-19.5h0Z"/>
  <path class="cls-1" d="m312.57,455.1c5.87-2.43,13.07-1.75,18.36,1.76-6.18-.83-12.14-1.41-18.36-1.76h0Z"/>
  <path class="cls-1" d="m337.26,461.02c7.61,2.36,14.52,7.21,19.3,13.59-2.97-1.79-6.88-4.66-9.76-6.64-2.84-2.05-6.84-4.75-9.54-6.95h0Z"/>
  <path class="cls-1" d="m362.05,480.31c5.17,5.31,8.93,12.02,11.15,19.12,2,7.01,2.26,14.51,5.45,21.11,2.18,4.22,5.23,8.12,9.02,11.23-2.16-1.19-4.09-2.78-5.85-4.55-7.73-7.35-8.17-17.66-10.45-27.3-1.95-7-5.17-13.6-9.33-19.61h0Z"/>
  <path class="cls-1" d="m362.16,531.77c-2.89-.37-5.23-1.88-6.64-4.36,2.81.13,5.42,1.81,6.64,4.36h0Z"/>
  <path class="cls-1" d="m344.94,520.46c-8.9-1.96-17.71-3.37-26.77-4.36,9.01-1.81,18.8-.22,26.77,4.36h0Z"/>
  <path class="cls-1" d="m349.19,527.83c-5.3-.56-10.36-2.18-15.61-2.82-5.23-.47-10.53,0-15.83.02,5.17-1.63,10.57-2.42,16.01-2.01,5.36.72,10.47,2.69,15.42,4.81h0Z"/>
  <path class="cls-1" d="m385.19,549.1c1.16,9.97-.52,20.37-4.77,29.46,1.58-9.87,3.17-19.6,4.77-29.46h0Z"/>
  <path class="cls-1" d="m380.42,586.24c.45,8.26.99,20.19,1.48,28.57.54,9.59-.96,19.39-4.59,28.29,2.05-9.3,3.2-18.69,2.59-28.19-.49-9.54-.56-19.15.52-28.66h0Z"/>
  <path class="cls-1" d="m375.44,649.53c-.79,5.17-2.2,10.15-3.72,15.13-1.6,4.95-3.08,9.91-5.31,14.65,1.43-10.32,4.59-20.36,9.03-29.78h0Z"/>
  <path class="cls-1" d="m355.65,616.2c-9.65,3.64-20.68,3.93-30.5.78,9.91.4,20.63.13,30.5-.78h0Z"/>
  <path class="cls-1" d="m357.28,572.23c-6.19,1.94-13.02,1.55-19.19-.25-6.12-1.69-12.4-1.45-18.67-.48,5.95-2.58,12.87-3.14,19.16-1.46,6.17,1.87,12.28,2.5,18.71,2.18h0Z"/>
  <path class="cls-1" d="m315.58,567.67c-2.02,2.13-5.76,2.34-7.99.42,2.67-.83,5.24-.96,7.99-.42h0Z"/>
</svg>