<?xml version="1.0" encoding="utf-8"?>
<!-- Generator: Adobe Illustrator 28.0.0, SVG Export Plug-In . SVG Version: 6.00 Build 0)  -->
<svg version="1.1" id="Capa_1" xmlns="http://www.w3.org/2000/svg" xmlns:xlink="http://www.w3.org/1999/xlink" x="0px" y="0px"
	 viewBox="0 0 595.28 841.89" style="enable-background:new 0 0 595.28 841.89;" xml:space="preserve">
<style type="text/css">
	.st0{fill:#666666;}
</style>
<g>
	<g>
		<path d="M96.4,734.49c24.87-42.43,35.95-93.04,30.02-141.91c0,0-0.74-5.61-0.74-5.61l-1.14-5.53c-0.29-1.71-0.81-3.86-1.29-5.5
			c0,0-1.53-5.43-1.53-5.43c-0.76-2.58-1.94-5.41-2.81-7.98c-0.7-1.61-2.56-6.08-3.34-7.78c0,0-2.54-5.05-2.54-5.05
			c-5.16-10.11-11.42-19.58-17.44-29.22c-10.16-16.03-19.61-32.7-27.08-50.2c-30.54-70.1-49.48-151.92-16.11-224.49
			c38.51-83.05,128.06-137.02,218.52-140.61c74.45-3.11,151.14,26.54,199.84,83.8c8.88,10.19,15.83,21.9,21.55,34.08
			c14.81,30.15,39.67,107.55,27.65,139.03c-2.21,5.27-5.59,10.16-7.82,15.22c-6.52,14.08-1.71,28.57,5.38,41.57
			c8.34,15.51,19.51,33.87,28.6,49.01c1.99,3.2,4.04,6.37,6.09,9.59c4.13,6.54,8.77,13.78,8.12,22.01
			c-0.51,6.11-2.93,12.99-9.01,15.58c-9.98,4.56-25.37,0.44-30.29,12.64c-1.23,2.76-1.51,5.78-0.83,8.76
			c1.83,7.27,7.87,14.16,5.86,22.26c-2.45,10.25-13.26,15.06-22.33,17.91c0,0,0.23-2.61,0.23-2.61c3.83,2,8.1,4.51,10.28,8.57
			c2.3,4.17,2.42,9.61-0.5,13.49c-3.43,4.79-8.1,7.97-11.35,12.72c-5.05,6.93-6.34,15.02-3.52,23.17c1.7,5.4,3.7,11.01,3.9,16.8
			c0.33,17.6-11.13,33.75-25.6,42.84c-9.95,6.36-22.05,8.16-33.21,4.06c-10.73-3.69-20.68-9.58-32.05-11.02
			c-23.03-3.43-44.66,9.72-59.78,26.11c11.41-12.48,25.86-23.3,42.82-26.46c29.55-5.81,43.72,14.86,65.88,11.9
			c16.61-2.72,30.37-16.01,36.76-31.16c4.94-11.93,3.25-20.74-0.96-32.39c-4.43-12.32,0.34-23.32,9.37-31.92
			c2.84-2.99,6.07-5.56,7.07-9.53c1.24-7.39-4.37-11.73-10.41-14.66c0,0-3.05-1.58-3.05-1.58l3.28-1.03
			c9.48-2.85,22.33-9.24,20.29-20.91c-1.45-7.18-7.7-14.11-6.38-22.07c0.66-4.1,2.59-8.04,5.71-10.86
			c7.52-6.78,18.73-4.44,27.34-8.14c4.93-2.11,6.44-7.78,6.93-12.7c0.47-7.31-3.86-13.73-7.69-19.78
			c-7.23-10.8-17.01-27.52-23.89-38.82c-3.89-6.53-7.75-13.08-11.35-19.84c-3.59-6.89-7.09-13.95-8.42-21.76
			c-1.34-7.86-0.59-16.23,2.75-23.49c3.18-7.28,7.98-13.28,9.28-20.22c0.75-3.5,1.13-7.17,1.19-10.88
			c0.27-11.23-1.23-22.39-3.19-33.47c-5.54-29.55-14.74-58.65-27.5-85.87c-4.9-10.12-10.21-19.97-17.36-28.66
			c0,0-3.56-4.36-3.56-4.36l-3.72-4.22c-47.87-53.32-121.19-80.61-192.23-77.81c-88.57,3.42-176.87,56.28-214.82,137.49
			c-33.19,71.51-14.83,152.16,14.87,221.57c7.32,17.44,16.54,33.94,26.57,50.01c5.96,9.68,12.16,19.36,17.25,29.56
			c0,0,2.52,5.15,2.52,5.15c0.75,1.91,2.64,6.06,3.31,7.94c0.9,2.58,1.97,5.54,2.77,8.14c0,0,1.5,5.54,1.5,5.54
			c0.92,3.39,1.66,7.8,2.34,11.22c0,0,0.7,5.68,0.7,5.68C133.6,641.52,122.02,692.27,96.4,734.49L96.4,734.49z"/>
	</g>
	<g>
		<path class="st0" d="M308.91,445.9c4.56-10.93,6.44-22.95,4.76-34.64c-4.39-27.65-23.58-54.26-54.03-39.4
			c-13.9,7.02-23.33,19.85-24.64,35.51c-0.85,7.68-0.27,15.48,0.53,23.2c1.2,13.59,3.59,27.11,9.05,39.67
			c3.48,8.38,10.25,17.29,15.11,25.05c4.32,6.35,8.5,13.38,13.62,18.95c2.6,2.66,6.08,4.21,9.48,5.62c2.64,1.06,5.35,1.77,8.14,2.09
			c9.26,1.24,15.03-6.06,17.37-14.25c2.19-7.4,2.43-15.39,2.14-23.23c-0.31-7.89-1.43-15.74-2.56-23.59
			c1.63,7.77,3.25,15.56,3.94,23.49c1.34,13.72,0.78,37.34-16.34,40.72c-7.85,1.09-15.77-1.91-22.38-5.99
			c-2.61-1.81-4.73-4.35-6.63-6.75c-3.7-4.73-7.05-9.7-10.42-14.64c-3.92-6-9.63-13.83-13.15-20.03
			c-5.75-10.75-9.02-22.71-10.9-34.7c-1.98-16-4.47-32.63,0.85-48.28c5.63-15.66,20.43-27.63,36.71-30.62
			c23.43-3.78,38.19,14.48,43.73,35.1C317.93,414.61,316.16,431.59,308.91,445.9L308.91,445.9z"/>
	</g>
	<g>
		<path class="st0" d="M293.25,440.62c2.36,0.29,5.49,1.82,5.27,4.73c-0.25,2.54-1.88,4.68-2.61,6.96
			c-0.54,1.46-0.85,2.95-0.94,4.45c-0.28,4.53,1.36,9.07,3.75,12.9c0.99,1.68,2.6,3.2,3.64,5.12c2.6,5.58-4.96,9.73-9.64,8.36
			c-3.08-0.58-5.13-4.21-6.17-6.39c-1.81-3.65-4.45-7.11-8.81-7.07c-5.64,0.52-11.14-2.41-14.58-6.75
			c-10.15-12.22-5.05-28.1,6.43-37.27c2.56-2.15,5.8-3.77,8.89-4.87c3.01-1.1,5.86-2.5,8.67-4.09c2.78-1.69,5.88-2.83,8.45-4.85
			c-2.21,2.41-5.14,4-7.69,6.02c-2.62,1.96-5.48,3.71-8.44,5.18c-8.38,3.71-14.86,11.7-16.86,20.57c-1.26,5.75,0.61,11.77,4.3,16.19
			c1.82,2.17,4.23,3.9,6.7,4.58c1.94,0.63,4.86,0.07,7.18,0.74c4.68,1.17,8.17,5.36,9.97,9.52c1.23,2.45,1.88,4.65,4.67,4.34
			c1.34-0.13,3.06-0.97,3.45-2.08c0.04-0.1-0.13-0.61-0.53-1.21c-4.01-5.34-6.86-12.34-5.8-19.2c0.48-3.37,2.32-6.44,4.06-9.2
			C298.83,444.05,296.55,441.61,293.25,440.62L293.25,440.62z"/>
	</g>
	<g>
		<path class="st0" d="M281.76,437.94c5.28-6.31,9.08-13.59,11.19-21.52c2.37-7.43,3.34-15.74-0.89-22.52
			c-5.13-8.5-19.82-15.6-29.21-10.89c-3.33,1.64-5.66,4.62-7.77,7.72c-2.18,3.27-4.5,6.74-6.32,10.23
			c-3.61,6.99-5.58,14.76-5.48,22.64c0.49,12.01,3.81,24.02,8.43,35.11c3.2,7.49,7.32,14.61,12.05,21.37
			c-8.39-9.13-15.04-20.06-19.31-31.77c-6.04-16.78-8.6-33.08-0.04-49.56c3.1-5.68,6.24-11.14,10.66-15.98
			c4.71-5.15,12.62-7.2,19.22-5.57c13.1,3.05,24.97,13.23,23.98,27.63c-0.26,4.38-1.53,8.5-3,12.38
			C292.51,425.02,287.88,432.34,281.76,437.94L281.76,437.94z"/>
	</g>
	<g>
		<path class="st0" d="M296.63,402.89c-5.3,6.43-13.95,9.94-22.21,8.43c4.9-1.02,9.7-2.17,14.25-4.18
			C291.39,405.87,293.87,404.2,296.63,402.89L296.63,402.89z"/>
	</g>
</g>
</svg>
