<?xml version="1.0" encoding="utf-8"?>
<!-- Generator: Adobe Illustrator 28.0.0, SVG Export Plug-In . SVG Version: 6.00 Build 0)  -->
<svg version="1.1" id="Capa_1" xmlns="http://www.w3.org/2000/svg" xmlns:xlink="http://www.w3.org/1999/xlink" x="0px" y="0px"
	 viewBox="0 0 595.28 417.57" style="enable-background:new 0 0 595.28 417.57;" xml:space="preserve">
<style type="text/css">
	.st0{fill:#666666;}
</style>
<g>
	<g>
		<path d="M39,350.8c19.42-35.62,42.08-69.68,68.2-100.8c8.68-10.28,17.79-20.14,25.16-31.38c3.76-5.54,7.12-11.29,10.42-17.14
			c16.68-28.96,29.44-60.93,27.4-94.9c-0.68-13.37-3.66-26.64-8.42-39.29c5.78,12.23,9.48,25.51,10.86,39.09
			c3.64,34.36-8.73,68.07-25.58,97.48c-3.3,5.94-6.73,11.89-10.53,17.54c-7.56,11.35-16.84,21.44-25.72,31.66
			C84.29,283.68,61.03,316.81,39,350.8L39,350.8z"/>
	</g>
	<g>
		<path class="st0" d="M65.27,351.88c17.28-12.13,36.9-20.73,56.97-27.29c14.13-4.76,28.9-8.02,43.88-8.29
			c32.04-0.74,63.9,12.71,86.76,34.78c-13.52-10.02-28.27-18.23-44.02-23.4c-33.35-11.24-64.62-6.43-97.29,4.82
			C95.62,337.48,80.19,344.04,65.27,351.88L65.27,351.88z"/>
	</g>
	<g>
		<path class="st0" d="M326.85,303.63c0.33,16.35,2.66,32.47,6.97,48.24C326.86,336.99,324.4,319.88,326.85,303.63L326.85,303.63z"
			/>
	</g>
	<g>
		<path class="st0" d="M308.09,65.1c27.52,41.31,66.43,73.58,112.12,92.94c6.47,2.83,13.08,5.36,19.75,7.84
			c-6.97-1.41-13.84-3.33-20.63-5.54C371.94,144.51,330.2,110.16,308.09,65.1L308.09,65.1z"/>
	</g>
	<g>
		<path d="M514.2,84.8c4.8,0.45,9.71-0.12,14.14-1.86c2.32-0.82,4.24-2.5,6.8-2.78c2.61-0.24,5.11,0.78,7.17,2.21
			c8.1,5.99,11.74,18,6.97,27.17c-1.53,2.7-4.17,3.95-7.22,3.5c-5.11,0-10.5,4.43-11.32,9.51c-0.27,3.38,1.23,6.45,2.32,9.78
			c0.8,2.3,1.58,4.68,2.11,7.13c2.14,9.79,2.04,20.14-1.46,29.66c-3.44,9.74-12.07,17.05-21.5,20.68c-4.7,2.06-9.97,2.92-15.03,2.73
			c-7.49-0.17-14.67-1.42-21.93-2.8c-11.88-2.38-23.66-5.51-35.3-8.8c-6.93-1.95-13.4-3.71-20.44-2.83
			c-9.13,0.99-18.14,4.36-25.65,9.64c-9.31,7.03-14.3,18.47-19.64,28.65c-12.55,24.93-21.87,54.39-31.91,80.53
			c-7.83,19.34-9.74,36.12-0.43,55.56c-2.33-4.23-4.21-8.73-5.52-13.41c-2.64-9.4-2.71-19.48-0.45-28.97
			c1.07-4.77,2.57-9.41,4.09-13.99c6.19-18.3,12.29-36.6,18.85-54.81c3.26-9.17,7.31-18,11.43-26.81c5.52-10.88,10.7-23,20.76-30.62
			c6.17-4.42,13.18-7.49,20.51-9.32c4.93-1.21,10.02-1.87,15.13-1.48c5.18,0.41,9.95,1.8,14.62,3.06c9.28,2.65,18.5,5.2,27.89,7.33
			c9.21,2.08,18.71,3.97,28.11,4.36c4.63,0.23,9.03-0.45,13.25-2.24c8.53-3.2,16.02-9.31,19.27-17.97
			c3.37-8.56,3.64-18.37,1.84-27.38c-1.04-7.15-6.76-14.85-2.67-22.03c2.83-4.54,7.64-7.99,13.17-7.81
			c4.89,1.09,6.61-4.52,7.02-8.47c1.18-8.13-4.86-20.65-13.94-20.72c-2.32,0.17-4.38,1.78-6.62,2.45
			C523.94,85.2,518.97,85.49,514.2,84.8L514.2,84.8z"/>
	</g>
	<g>
		<path d="M556.37,67.3c1.3,6.51-3.16,13.18-8.96,15.95c-1.91,0.93-5.14,1.26-6.41-0.82c0,0,0.13-0.15,0.13-0.15
			c3.52,2.43,7.74-1.76,9.99-4.28c2.59-3.02,4.5-6.74,5.05-10.71C556.18,67.28,556.37,67.3,556.37,67.3L556.37,67.3z"/>
	</g>
</g>
</svg>
