<?xml version="1.0" encoding="utf-8"?>
<!-- Generator: Adobe Illustrator 28.0.0, SVG Export Plug-In . SVG Version: 6.00 Build 0)  -->
<svg version="1.1" id="Capa_1" xmlns="http://www.w3.org/2000/svg" xmlns:xlink="http://www.w3.org/1999/xlink" x="0px" y="0px"
	 viewBox="0 0 595.28 417.57" style="enable-background:new 0 0 595.28 417.57;" xml:space="preserve">
<style type="text/css">
	.st0{fill:#666666;}
</style>
<g>
	<g>
		<path d="M107.5,34.98c0.44,15.73,4.92,37.26,16.02,48.84c4.63,4.81,10.27,10.21,17.44,9.28c3.42-0.38,6.57-2.26,9.15-4.65
			c-2.26,2.71-5.38,4.87-8.99,5.62c-7.56,1.52-14-3.93-18.97-8.94C110.41,73.3,106.09,51.13,107.5,34.98L107.5,34.98z"/>
	</g>
	<g>
		<path d="M174.63,115.79c14.46,52.19,18.35,119.46-6.5,168.94c-3.8,7.31-8.2,14.3-13.4,20.61c4.29-6.96,8.05-14.18,11.17-21.65
			C187.11,231.78,182.68,170.26,174.63,115.79L174.63,115.79z"/>
	</g>
	<g>
		<path d="M145.58,92c5.66,19.06,8.82,38.83,10.64,58.61c2.9,19.23,15.39,36.72,27.37,51.62c-3.47-3.56-6.72-7.33-9.85-11.21
			c-9.09-11.79-17.35-25.17-19.51-40.16C152.48,131.03,149.72,111.48,145.58,92L145.58,92z"/>
	</g>
	<g>
		<path d="M204.79,236.8c-7.96,23.15-21.52,44.58-38.89,61.95c-17.4,17.51-39.47,29.46-60.6,41.54
			c-14.21,7.89-28.85,15.55-44.52,20.1c14.94-6.51,28.74-14.95,42.55-23.46c12.07-7.66,29.47-17.94,40.81-26.24
			C170.43,291.92,190.53,265.76,204.79,236.8L204.79,236.8z"/>
	</g>
	<g>
		<path d="M487.78,34.98c1.41,16.13-2.91,38.33-14.66,50.15c-4.96,5-11.41,10.46-18.97,8.94c-3.61-0.75-6.73-2.91-8.99-5.62
			c2.58,2.4,5.73,4.28,9.15,4.65c7.17,0.92,12.81-4.47,17.44-9.28C482.85,72.26,487.34,50.72,487.78,34.98L487.78,34.98z"/>
	</g>
	<g>
		<path d="M420.64,115.79c-8.05,54.46-12.48,115.99,8.73,167.91c3.12,7.47,6.87,14.69,11.17,21.65c-5.2-6.32-9.6-13.31-13.4-20.61
			C402.3,235.25,406.18,168,420.64,115.79L420.64,115.79z"/>
	</g>
	<g>
		<path d="M449.69,92c-4.14,19.49-6.9,39.03-8.66,58.86c-2.16,14.99-10.42,28.37-19.51,40.16c-3.13,3.88-6.38,7.65-9.85,11.21
			c11.99-14.91,24.47-32.36,27.37-51.62C440.87,130.83,444.04,111.06,449.69,92L449.69,92z"/>
	</g>
	<g>
		<path d="M390.49,236.8c14.26,28.96,34.36,55.12,60.66,73.88c11.27,8.26,28.82,18.63,40.8,26.24
			c13.81,8.51,27.61,16.95,42.54,23.46c-15.67-4.55-30.31-12.2-44.52-20.1c-21.13-12.08-43.2-24.03-60.6-41.54
			C412.01,281.37,398.45,259.94,390.49,236.8L390.49,236.8z"/>
	</g>
</g>
</svg>
