<?xml version="1.0" encoding="utf-8"?>
<!-- Generator: Adobe Illustrator 28.0.0, SVG Export Plug-In . SVG Version: 6.00 Build 0)  -->
<svg version="1.1" id="Capa_1" xmlns="http://www.w3.org/2000/svg" xmlns:xlink="http://www.w3.org/1999/xlink" x="0px" y="0px"
	 viewBox="0 0 595.28 417.57" style="enable-background:new 0 0 595.28 417.57;" xml:space="preserve">
<style type="text/css">
	.st0{fill:#666666;}
</style>
<g>
	<g>
		<path d="M556.27,350.8c-22.03-33.99-45.29-67.12-71.78-97.73c-8.88-10.23-18.16-20.31-25.72-31.66
			c-3.81-5.66-7.23-11.61-10.53-17.54c-16.85-29.41-29.23-63.12-25.58-97.48c1.39-13.58,5.08-26.87,10.86-39.09
			c-4.76,12.65-7.73,25.91-8.42,39.29c-2.04,33.95,10.72,65.96,27.4,94.9c3.3,5.85,6.66,11.6,10.42,17.14
			c7.36,11.24,16.47,21.09,25.16,31.38C514.2,281.12,536.85,315.18,556.27,350.8L556.27,350.8z"/>
	</g>
	<g>
		<path class="st0" d="M530.01,351.88c-14.92-7.83-30.35-14.39-46.3-19.39c-32.67-11.25-63.95-16.06-97.29-4.82
			c-15.76,5.17-30.5,13.38-44.02,23.4c22.85-22.08,54.72-35.53,86.76-34.78c14.99,0.28,29.75,3.53,43.88,8.29
			C493.11,331.15,512.73,339.75,530.01,351.88L530.01,351.88z"/>
	</g>
	<g>
		<path class="st0" d="M268.42,303.63c2.45,16.24-0.01,33.36-6.97,48.24C265.76,336.1,268.1,319.98,268.42,303.63L268.42,303.63z"/>
	</g>
	<g>
		<path class="st0" d="M287.19,65.1c-22.11,45.06-63.85,79.42-111.24,95.23c-6.78,2.22-13.65,4.14-20.63,5.54
			c6.67-2.47,13.28-5.01,19.75-7.84C220.76,138.67,259.66,106.41,287.19,65.1L287.19,65.1z"/>
	</g>
	<g>
		<path d="M81.08,84.8c-4.77,0.7-9.75,0.4-14.4-1.16c-2.25-0.68-4.3-2.28-6.62-2.45c-2.26-0.12-4.47,0.86-6.3,2.24
			c-7.09,5.6-10.18,16.79-5.68,24.82c1.31,2.02,2.76,2.49,5.06,2.14c5.53-0.18,10.34,3.27,13.17,7.81
			c4.1,7.18-1.62,14.89-2.67,22.03c-1.8,9.01-1.53,18.82,1.84,27.38c3.26,8.66,10.74,14.76,19.27,17.97
			c4.23,1.78,8.62,2.46,13.26,2.24c9.4-0.39,18.9-2.28,28.11-4.36c9.39-2.13,18.61-4.68,27.89-7.33c4.67-1.26,9.44-2.65,14.62-3.06
			c5.11-0.39,10.2,0.28,15.13,1.48c7.33,1.83,14.33,4.9,20.51,9.32c10.06,7.61,15.25,19.75,20.76,30.62
			c4.12,8.81,8.17,17.64,11.42,26.81c6.57,18.21,12.66,36.51,18.85,54.81c1.52,4.59,3.02,9.23,4.09,13.99
			c2.25,9.49,2.19,19.58-0.45,28.97c-1.31,4.68-3.19,9.18-5.52,13.41c9.3-19.44,7.42-36.19-0.43-55.56
			c-10.05-26.24-19.38-55.54-31.91-80.53c-5.33-10.16-10.34-21.62-19.64-28.65c-7.51-5.28-16.52-8.65-25.65-9.64
			c-7.04-0.88-13.51,0.87-20.44,2.83c-11.64,3.28-23.42,6.42-35.3,8.8c-7.27,1.38-14.45,2.62-21.93,2.8
			c-5.06,0.19-10.32-0.66-15.03-2.73c-9.44-3.63-18.07-10.94-21.5-20.68c-3.51-9.52-3.6-19.87-1.46-29.66
			c0.54-2.44,1.31-4.83,2.11-7.13c1.34-4.2,3.67-8.49,1.41-12.63c-2.05-3.59-6.16-6.75-10.41-6.67c-1.2,0.1-2.99,0.15-4.16-0.54
			c-1.36-0.68-2.36-1.8-3.06-2.97c-4.78-9.18-1.13-21.18,6.97-27.17c2.05-1.42,4.56-2.45,7.17-2.21c2.56,0.28,4.48,1.96,6.8,2.78
			C71.37,84.68,76.28,85.25,81.08,84.8L81.08,84.8z"/>
	</g>
	<g>
		<path d="M39.15,67.28c3.59,4.61,6.36,9.03,10.45,12.97c1.35,1.19,2.46,2.34,4.51,1.99c0,0,0.19,0.23,0.19,0.23
			c-4.91,3.61-12.11-5.16-13.81-9.3c-0.85-1.85-1.46-3.82-1.64-5.86L39.15,67.28L39.15,67.28z"/>
	</g>
</g>
</svg>
