<?xml version="1.0" encoding="utf-8"?>
<!-- Generator: Adobe Illustrator 28.0.0, SVG Export Plug-In . SVG Version: 6.00 Build 0)  -->
<svg version="1.1" id="Capa_1" xmlns="http://www.w3.org/2000/svg" xmlns:xlink="http://www.w3.org/1999/xlink" x="0px" y="0px"
	 viewBox="0 0 595.28 417.57" style="enable-background:new 0 0 595.28 417.57;" xml:space="preserve">
<style type="text/css">
	.st0{fill:#666666;}
</style>
<g>
	<g>
		<path d="M166.78,97.51c4.07,32.45,7.1,65.06,7.89,97.78c0.27,18.16-0.39,32.43-10.22,48.41c-5.05,8.68-11.85,16.34-19.27,23
			c-9.74,9.03-20.93,16.64-33.08,21.95c-30.11,12.71-59.84,25.87-88.58,41.63c21.97-14.17,45.07-26.68,68.95-37.46
			c11.87-5.5,24.01-10.31,34.47-17.64c12.92-9.25,25.04-20.31,33.26-34.01c9.29-14.74,10.02-28.91,10.09-45.87
			C170.19,162.69,168.29,130.13,166.78,97.51L166.78,97.51z"/>
	</g>
	<g>
		<path class="st0" d="M49.65,353.6c12.29,6.59,25.15,11.69,38.59,15.38C74.26,368.04,60.45,362.54,49.65,353.6L49.65,353.6z"/>
	</g>
	<g>
		<path class="st0" d="M173.88,238.62c1.69,24.07-5.99,48.64-20.62,67.78c-2.13,2.7-4.33,5.35-6.72,7.8
			C163.3,292.59,172.94,265.95,173.88,238.62L173.88,238.62z"/>
	</g>
	<g>
		<path d="M428.5,97.51c-1.51,32.62-3.42,65.18-3.52,97.79c0.08,16.98,0.8,31.11,10.09,45.87c8.22,13.7,20.34,24.76,33.26,34.01
			c10.46,7.33,22.59,12.13,34.47,17.64c23.88,10.78,46.98,23.29,68.95,37.46c-28.74-15.76-58.47-28.92-88.58-41.63
			c-12.15-5.31-23.34-12.92-33.08-21.95c-7.42-6.66-14.21-14.33-19.27-23c-9.83-15.99-10.48-30.26-10.22-48.41
			C421.4,162.57,424.43,129.96,428.5,97.51L428.5,97.51z"/>
	</g>
	<g>
		<path class="st0" d="M545.62,353.6c-10.8,8.94-24.6,14.44-38.59,15.38C520.47,365.29,533.33,360.19,545.62,353.6L545.62,353.6z"/>
	</g>
	<g>
		<path class="st0" d="M421.4,238.62c0.94,27.34,10.58,53.97,27.34,75.58c-2.4-2.46-4.59-5.1-6.72-7.8
			C427.38,287.26,419.71,262.68,421.4,238.62L421.4,238.62z"/>
	</g>
	<g>
		<path d="M457.18,48.59c-12.59,36.84-38.65,68.59-73.12,87.02c-2.04,1.22-6.4,3.53-8.3,4.73c-8.36,5.11-17.36,9.26-26.81,11.99
			c-33.33,9.81-69.26,9.53-102.61,0.01c-10.54-2.93-20.26-7.93-29.53-13.58c-9.35-5.18-18.83-10.72-27.27-17.31
			c-10.3-7.86-19.38-17.34-27.22-27.61c-10.45-13.71-18.63-29.07-24.21-45.25c6.61,15.78,15.3,30.64,26.13,43.73
			c10.68,13.18,23.51,24.49,37.98,33.32c5.15,3.23,11.3,6.43,16.68,9.38c9.04,5.34,18.56,10.11,28.72,12.77
			c32.65,8.99,67.42,9.26,100.04,0c9.07-2.48,17.78-6.35,25.89-11.17c2.17-1.22,6.31-3.51,8.49-4.66
			C416.35,114.56,442.59,84.04,457.18,48.59L457.18,48.59z"/>
	</g>
</g>
</svg>
