<?xml version="1.0" encoding="utf-8"?>
<!-- Generator: Adobe Illustrator 28.0.0, SVG Export Plug-In . SVG Version: 6.00 Build 0)  -->
<svg version="1.1" id="Capa_1" xmlns="http://www.w3.org/2000/svg" xmlns:xlink="http://www.w3.org/1999/xlink" x="0px" y="0px"
	 viewBox="0 0 595.28 417.57" style="enable-background:new 0 0 595.28 417.57;" xml:space="preserve">
<g>
	<g>
		<path d="M98.68,318.03c15.45-27.09,32.95-53.14,53.15-76.95c10.37-11.72,20.16-23.63,27.48-37.46
			c12.84-22.25,22.63-47.39,20.72-73.49c-0.63-10.33-3.08-20.53-6.93-30.19c4.26,9.48,6.94,19.71,7.9,30.11
			c2.95,31.8-11.38,61.79-28.09,87.93c-8.77,12.98-20.07,23.92-29.65,36.25C127.1,274.55,112.34,295.95,98.68,318.03L98.68,318.03z"
			/>
	</g>
	<g>
		<path d="M118.89,318.86c10.86-7.08,22.65-12.74,34.88-17.05c12.14-4.42,24.76-8.21,37.83-9.18c19.56-1.43,39.4,3.71,56.05,13.98
			c5.52,3.41,10.75,7.29,15.56,11.63c-5.09-3.99-10.4-7.69-16.06-10.79c-22.33-12.96-49.48-16.4-74.38-9.77
			C154.09,302.58,135.72,309.25,118.89,318.86L118.89,318.86z"/>
	</g>
	<g>
		<path d="M320.11,281.75c-0.07,10.99,1.19,21.96,4.09,32.57c0.38,1.52,0.84,3.03,1.27,4.55
			C320.48,307.26,318.6,294.28,320.11,281.75L320.11,281.75z"/>
	</g>
	<g>
		<path d="M305.68,98.25c22.35,37.66,59.59,65.21,101.44,77.52c-5.28-1.38-10.48-3.05-15.62-4.92
			C355.57,157.68,324.24,131.85,305.68,98.25L305.68,98.25z"/>
	</g>
	<g>
		<path d="M464.22,113.41c3.69,0.39,7.48,0.01,10.92-1.3c1.78-0.61,3.27-1.88,5.2-2.08c5.95-0.13,10.02,5.83,11.52,10.99
			c1.05,4.16,0.98,10.82-3.22,13.27c-0.88,0.5-2.05,0.4-2.97,0.34c-1.73-0.07-3.46,0.56-4.92,1.53c-2.9,1.9-5.18,5.22-4.26,8.79
			c0.77,3.55,2.47,7.02,3.19,10.65c2.34,10.9,1.12,23.97-7.58,31.85c-4.29,3.83-9.63,6.44-15.23,7.58
			c-9.4,1.16-18.77-1.11-27.9-2.98c-7.27-1.63-14.48-3.57-21.61-5.59c-3.57-0.98-7.12-2.01-10.69-2.29
			c-10.24-0.57-22.48,3.7-29.53,11.28c-4.76,5.54-8.06,12.3-11.33,18.83c-3.17,6.68-6.36,13.38-8.96,20.31
			c-5.24,13.88-10.21,27.89-15.28,41.84c-5.88,14.75-7.26,28.24,0.1,42.89c-7.81-14.45-6.63-28.29-1.02-43.22
			c7.54-20.96,13.8-42.51,23.6-62.58c4.23-8.26,8.16-17.38,15.78-23.16c7.77-5.41,17.25-8.65,26.8-8.14
			c3.85,0.3,7.49,1.35,11.07,2.32c10.7,3.05,21.41,5.98,32.36,7.83c5.4,0.84,10.92,1.66,16.32,0.89c5.27-1.06,10.36-3.54,14.37-7.09
			c8.25-7.47,9.46-19.88,7.38-30.28c-0.7-3.68-2.31-7-3.07-10.72c-0.99-4,1.59-7.89,4.89-9.96c1.63-1.04,3.57-1.74,5.57-1.64
			c1.8,0.33,3.34-0.3,4.29-1.9c1.78-3.05,1.95-7.06,1.14-10.47c-1.3-4.94-5.12-10.77-10.76-10.77c-1.83,0.15-3.39,1.4-5.13,1.95
			C471.72,113.62,467.9,113.9,464.22,113.41L464.22,113.41z"/>
	</g>
	<g>
		<path d="M496.64,99.95c0.4,4.88-2.77,9.73-7.06,11.94c-1.41,0.72-3.63,1.1-4.72-0.32c0,0,0.06-0.08,0.06-0.08
			c2.76,1.88,5.97-1.32,7.75-3.28C494.85,105.78,495.94,102.89,496.64,99.95L496.64,99.95z"/>
	</g>
</g>
</svg>
