<?xml version="1.0" encoding="utf-8"?>
<!-- Generator: Adobe Illustrator 28.0.0, SVG Export Plug-In . SVG Version: 6.00 Build 0)  -->
<svg version="1.1" id="Capa_1" xmlns="http://www.w3.org/2000/svg" xmlns:xlink="http://www.w3.org/1999/xlink" x="0px" y="0px"
	 viewBox="0 0 595.28 417.57" style="enable-background:new 0 0 595.28 417.57;" xml:space="preserve">
<g>
	<g>
		<path d="M151.37,75.09c0.14,12.34,3.43,28.62,12.13,37.76c3.62,3.7,8.06,7.9,13.64,7.08c2.66-0.34,5.07-1.82,7.02-3.71
			c-1.78,2.04-4.18,3.67-6.94,4.19c-5.76,1.08-10.65-3.12-14.37-6.93C153.85,104.35,150.57,87.52,151.37,75.09L151.37,75.09z"/>
	</g>
	<g>
		<path d="M203.02,137.25c11.11,45.44,14.18,106.69-15.31,145.82c0,0,2.47-4.01,2.47-4.01c1.96-3.04,4.02-7.03,5.55-10.33
			C213.84,229.17,210.54,179.19,203.02,137.25L203.02,137.25z"/>
	</g>
	<g>
		<path d="M180.67,118.95c1.91,7.39,3.81,14.81,5.03,22.38c1.18,6.52,2.15,16.07,2.89,22.75c2.33,15.09,11.8,28.11,21.32,39.67
			c-2.62-2.78-5.1-5.69-7.47-8.7c-6.88-9.12-13.16-19.35-14.84-30.85c-0.66-6.7-1.63-16.18-2.65-22.75
			C184.06,134.82,182.01,125.57,180.67,118.95L180.67,118.95z"/>
	</g>
	<g>
		<path d="M226.21,230.33c-7.37,18.78-18.88,35.98-33.67,49.76c-14.94,13.73-33.02,23.17-50.28,33.57
			c-17.42,10.28-36.81,17.12-56.74,20.58c-4.99,0.82-10.06,1.34-15.13,1.38c-5.07,0.06-10.09-0.45-15.06-0.1
			c-10,0.68-19.7,3.9-29.2,6.97c9.43-3.51,19.03-6.93,29.13-7.94c5.07-0.46,10.13-0.03,15.12-0.19c5-0.13,9.96-0.73,14.88-1.63
			c19.7-3.8,38.77-10.43,56.02-20.81C180.81,289.52,206.68,273.79,226.21,230.33L226.21,230.33z"/>
	</g>
	<g>
		<path d="M443.9,75.09c0.8,12.41-2.48,29.27-11.47,38.39c-3.73,3.81-8.62,8.02-14.37,6.93c-2.75-0.53-5.16-2.15-6.94-4.19
			c1.94,1.89,4.36,3.37,7.02,3.71c5.57,0.82,10.02-3.39,13.64-7.08C440.47,103.72,443.77,87.42,443.9,75.09L443.9,75.09z"/>
	</g>
	<g>
		<path d="M392.26,137.25c-7.53,41.93-10.82,91.92,7.29,131.48c1.53,3.3,3.58,7.27,5.55,10.33c0,0,2.47,4.01,2.47,4.01
			C378.08,243.95,381.14,182.7,392.26,137.25L392.26,137.25z"/>
	</g>
	<g>
		<path d="M414.61,118.95c-1.35,6.68-3.38,15.85-4.27,22.5c-1.01,6.53-1.99,16.07-2.65,22.75c-1.68,11.5-7.96,21.73-14.84,30.85
			c-2.37,3.01-4.85,5.92-7.47,8.7c9.52-11.57,19-24.58,21.32-39.67c0.74-6.71,1.7-16.19,2.89-22.75
			C410.79,133.76,412.69,126.34,414.61,118.95L414.61,118.95z"/>
	</g>
	<g>
		<path d="M369.06,230.33c19.53,43.45,45.42,59.2,84.94,81.59c17.26,10.37,36.32,17.01,56.02,20.81c4.92,0.9,9.88,1.51,14.88,1.63
			c4.99,0.15,10.04-0.27,15.12,0.19c10.1,1.02,19.7,4.43,29.13,7.94c-9.5-3.07-19.21-6.28-29.2-6.97c-4.97-0.35-9.99,0.16-15.06,0.1
			c-5.07-0.03-10.13-0.55-15.13-1.38c-19.93-3.46-39.32-10.3-56.74-20.58c-17.26-10.39-35.34-19.84-50.28-33.56
			C387.94,266.32,376.43,249.12,369.06,230.33L369.06,230.33z"/>
	</g>
</g>
</svg>
