<?xml version="1.0" encoding="utf-8"?>
<!-- Generator: Adobe Illustrator 28.0.0, SVG Export Plug-In . SVG Version: 6.00 Build 0)  -->
<svg version="1.1" id="Capa_1" xmlns="http://www.w3.org/2000/svg" xmlns:xlink="http://www.w3.org/1999/xlink" x="0px" y="0px"
	 viewBox="0 0 595.28 417.57" style="enable-background:new 0 0 595.28 417.57;" xml:space="preserve">
<g>
	<g>
		<path d="M496.59,318.03c-13.66-22.08-28.42-43.49-44.59-63.8c-9.58-12.33-20.88-23.27-29.65-36.25
			c-16.71-26.14-31.05-56.13-28.09-87.93c0.96-10.4,3.64-20.63,7.9-30.11c-3.84,9.65-6.3,19.85-6.93,30.19
			c-1.91,26.1,7.88,51.24,20.72,73.49c7.32,13.83,17.11,25.74,27.48,37.46C463.64,264.89,481.14,290.94,496.59,318.03L496.59,318.03
			z"/>
	</g>
	<g>
		<path d="M476.39,318.86c-16.83-9.6-35.2-16.27-53.88-21.18c-24.9-6.63-52.06-3.19-74.38,9.77c-5.65,3.1-10.96,6.8-16.06,10.79
			c4.81-4.35,10.04-8.23,15.56-11.64c16.65-10.28,36.49-15.41,56.05-13.98c13.07,0.97,25.69,4.76,37.83,9.18
			C453.74,306.12,465.53,311.78,476.39,318.86L476.39,318.86z"/>
	</g>
	<g>
		<path d="M275.17,281.75c1.51,12.53-0.37,25.52-5.36,37.11c0.43-1.52,0.89-3.02,1.27-4.55
			C273.97,303.71,275.24,292.73,275.17,281.75L275.17,281.75z"/>
	</g>
	<g>
		<path d="M289.6,98.25c-18.56,33.6-49.89,59.43-85.82,72.6c-5.13,1.87-10.34,3.53-15.62,4.92
			C230.01,163.46,267.25,135.91,289.6,98.25L289.6,98.25z"/>
	</g>
	<g>
		<path d="M131.05,113.41c-3.68,0.49-7.49,0.21-11.03-1.02c-1.74-0.55-3.3-1.79-5.13-1.95c-5.64-0.01-9.44,5.83-10.76,10.77
			c-0.81,3.41-0.64,7.43,1.14,10.47c0.98,1.63,2.46,2.22,4.29,1.9c2-0.1,3.94,0.6,5.57,1.64c3.3,2.07,5.87,5.95,4.89,9.96
			c-0.76,3.72-2.37,7.04-3.07,10.72c-2.99,15.05,1.09,30.13,16.6,35.83c6.79,2.98,14.36,1.71,21.47,0.64
			c10.96-1.85,21.67-4.78,32.36-7.83c3.58-0.97,7.22-2.02,11.07-2.32c9.55-0.52,19.02,2.73,26.8,8.14
			c7.62,5.78,11.54,14.9,15.78,23.16c3.18,6.74,6.32,13.5,8.84,20.52c5.08,13.98,9.88,28.03,14.76,42.06
			c5.6,14.91,6.8,28.76-1.02,43.22c7.35-14.66,5.99-28.11,0.1-42.89c-7.77-20.84-14.37-42.18-24.24-62.15
			c-4.15-7.99-7.97-16.87-15.3-22.43c-7.36-5.1-16.58-8.21-25.56-7.68c-3.57,0.28-7.12,1.32-10.69,2.29
			c-10.73,3.01-21.57,5.92-32.6,7.74c-5.56,0.84-11.27,1.66-16.92,0.83c-5.6-1.14-10.94-3.76-15.23-7.58
			c-8.7-7.89-9.92-20.95-7.58-31.85c0.72-3.63,2.42-7.1,3.19-10.65c0.93-3.57-1.37-6.89-4.26-8.79c-1.47-0.97-3.19-1.6-4.92-1.53
			c-0.92,0.07-2.1,0.15-2.97-0.34c-4.23-2.5-4.25-9.06-3.22-13.27c1.48-5.18,5.58-11.12,11.52-10.99c1.92,0.2,3.42,1.48,5.2,2.08
			C123.57,113.41,127.36,113.8,131.05,113.41L131.05,113.41z"/>
	</g>
	<g>
		<path d="M98.73,99.94c1.2,3.61,7.08,13.51,11.62,11.55c0,0,0.06,0.08,0.06,0.08c-2.8,1.97-6.12-1.24-7.96-3.23
			C100.58,106.08,98.73,102.76,98.73,99.94L98.73,99.94z"/>
	</g>
</g>
</svg>
