<?xml version="1.0" encoding="utf-8"?>
<!-- Generator: Adobe Illustrator 28.0.0, SVG Export Plug-In . SVG Version: 6.00 Build 0)  -->
<svg version="1.1" id="Capa_1" xmlns="http://www.w3.org/2000/svg" xmlns:xlink="http://www.w3.org/1999/xlink" x="0px" y="0px"
	 viewBox="0 0 595.28 417.57" style="enable-background:new 0 0 595.28 417.57;" xml:space="preserve">
<g>
	<g>
		<path d="M196.97,123.18c2.64,24.99,4.77,50.08,5.25,75.22c0.01,7.57-0.03,15.28-1.81,22.71c-3.28,12.38-11.23,23.11-20.67,31.54
			c-3.78,3.35-7.64,6.64-11.88,9.47c-8.41,5.69-17.88,9.42-27.14,13.39c-18.49,7.85-36.44,16.9-53.95,26.74
			c17.11-10.58,34.96-19.96,53.34-28.15c9.14-4.18,18.54-7.83,26.73-13.48c8.05-5.7,15.69-12.44,21.7-20.31
			c10.5-13.62,12.2-25.18,11.96-41.9C200.3,173.31,198.63,148.23,196.97,123.18L196.97,123.18z"/>
	</g>
	<g>
		<path d="M106.87,320.18c8.1,4.68,16.75,8.41,25.79,10.81c1.29,0.38,2.59,0.68,3.89,1.02C125.85,330.9,115.41,326.75,106.87,320.18
			L106.87,320.18z"/>
	</g>
	<g>
		<path d="M202.44,231.73c0.94,18.5-4.92,37.22-15.97,52.06c-1.6,2.1-3.27,4.15-5.06,6.08
			C194.62,273.48,202.11,252.79,202.44,231.73L202.44,231.73z"/>
	</g>
	<g>
		<path d="M398.3,123.18c-1.65,25.05-3.32,50.12-3.52,75.22c-0.25,16.7,1.46,28.3,11.96,41.9c6.01,7.87,13.65,14.6,21.7,20.31
			c8.19,5.66,17.59,9.31,26.73,13.48c18.38,8.19,36.23,17.57,53.34,28.15c-17.51-9.84-35.46-18.89-53.95-26.74
			c-9.26-3.96-18.73-7.7-27.14-13.39c-4.24-2.83-8.1-6.12-11.88-9.47c-9.44-8.43-17.39-19.16-20.67-31.54
			c-1.77-7.43-1.82-15.14-1.81-22.71C393.54,173.26,395.66,148.18,398.3,123.18L398.3,123.18z"/>
	</g>
	<g>
		<path d="M488.4,320.18c-8.53,6.57-18.98,10.72-29.69,11.83c1.3-0.34,2.61-0.64,3.89-1.02C471.65,328.59,480.3,324.86,488.4,320.18
			L488.4,320.18z"/>
	</g>
	<g>
		<path d="M392.84,231.73c0.33,21.06,7.81,41.74,21.03,58.14c-1.8-1.93-3.46-3.98-5.06-6.08
			C397.76,268.95,391.9,250.24,392.84,231.73L392.84,231.73z"/>
	</g>
	<g>
		<path d="M420.36,85.56c-10,28-30.23,52.31-56.62,66.26c-2.63,1.46-6.03,3.35-8.57,4.88c-17.36,9.82-37.79,13.06-57.53,13.39
			c-13.27-0.05-26.45-2.14-39.22-5.6c-8.03-2.19-15.5-5.99-22.57-10.27c-4.15-2.33-8.84-4.88-12.82-7.48
			c-11.18-7.08-21.06-16.18-29.13-26.66c-8.08-10.45-14.5-22.15-18.98-34.53c4.9,12.21,11.46,23.75,19.75,33.92
			c8.16,10.26,18.01,19.11,29.18,25.97c5.53,3.49,11.45,6.37,17.12,9.75c5.66,3.22,11.68,5.8,17.95,7.54
			c25.25,6.98,52.22,7.2,77.45,0c6.26-1.76,12.29-4.32,17.96-7.54c2.52-1.42,6.01-3.48,8.61-4.83
			C389.35,136.85,409.53,113.05,420.36,85.56L420.36,85.56z"/>
	</g>
</g>
</svg>
