<?xml version="1.0" encoding="utf-8"?>
<!-- Generator: Adobe Illustrator 28.0.0, SVG Export Plug-In . SVG Version: 6.00 Build 0)  -->
<svg version="1.1" id="Capa_1" xmlns="http://www.w3.org/2000/svg" xmlns:xlink="http://www.w3.org/1999/xlink" x="0px" y="0px"
	 viewBox="0 0 595.28 841.89" style="enable-background:new 0 0 595.28 841.89;" xml:space="preserve">
<g>
	<g>
		<path d="M135.08,506.34c-2.8,6.75-4.95,13.75-6.43,20.89c-3.71,1.17-7.59,1.57-11.44,1.92c-22.9,1.65-46.7-2.42-66.69-14.07
			c-3.47-2.08-6.79-4.39-9.97-6.9l0.24-0.51c6.63-14.76,10.93-30.68,13.19-46.69c2.75-24.19,0.13-49.07,5.88-73.13
			c6.83-32.94,25.79-61.91,57.35-75.59c22.24-10.29,45.51-18.07,68.14-27.35c14.97-6.35,30.19-12.4,44.81-19.51
			c14.99-7.26,26.44-19.14,32.97-34.51c-3.19,7.49-7.44,14.61-13.01,20.61c-11.17,12.21-27.05,18.31-41.84,24.85
			c-29.6,13.68-60.68,23.99-90.33,37.5c-31.09,13.59-49.33,41.97-56.2,74.41c-5.79,23.98-3.21,48.5-6.06,72.93
			c-1.08,8.13-2.87,16.17-5.15,24.02c-2.28,7.85-4.95,15.63-8.48,23.05l-0.2-0.86c11.87,9.58,26.28,15.59,41.16,18.67
			c7.46,1.56,15.06,2.48,22.69,2.72c7.58,0.13,15.36,0.09,22.72-1.88C129.59,520.56,132.35,512.82,135.08,506.34L135.08,506.34z"/>
	</g>
	<g>
		<path d="M109.18,434.66c10.47,20.05,19.35,41.12,24.59,63.19c1.83,7.33,3.24,14.76,5.61,21.85c1.82,6.12,6.56,14.6,9.43,20.41
			c3.37,6.76,6.69,13.55,9.64,20.53c3.72,8.73,6.8,17.79,8.42,27.17c0.6,3.65,1.67,13.06,2.14,16.89
			c1.63,15.01,3.15,30.06,3.43,45.21c0.1,8.46,0.06,17.26-2.65,25.49c-0.92,2.6-1.86,5.21-1.92,7.98c-0.2,3.29,0.6,7.84,0.95,11.13
			c0.76,7.55,1.12,15.24-0.2,22.76c-0.68,3.78-2.26,7.26-3.57,10.84c-1.33,3.53-2.89,7-4.19,10.5c-4.72,14.27-6.47,29.57-4.69,44.53
			c-2.81-18.75,0.29-38.11,7.83-55.43c1.23-3.51,2.77-6.99,3.38-10.66c1.2-7.36,0.75-14.96-0.09-22.35
			c-0.42-3.43-1.27-7.97-1.1-11.38c0.04-2.9,1.01-5.75,1.97-8.45c2.59-7.97,2.59-16.5,2.46-24.92c-0.33-15.03-1.92-30.04-3.59-45.01
			c-0.46-3.72-1.46-13.17-2.06-16.79c-1.57-9.23-4.56-18.16-8.19-26.78c-2.89-6.93-6.17-13.71-9.51-20.47
			c-2.87-5.79-7.58-14.48-9.34-20.71c-2.32-7.26-3.64-14.71-5.38-22.04C127.56,476.06,119.1,454.98,109.18,434.66L109.18,434.66z"/>
	</g>
	<g>
		<path d="M157.63,327.28c18.64,5.81,38.36,10.7,57.58,14.42C195.36,340.69,175.62,335.74,157.63,327.28L157.63,327.28z"/>
	</g>
	<g>
		<path d="M242.39,350.52c3.55,4.31,5.17,10.26,4.25,15.77C244.79,361.1,243.41,355.94,242.39,350.52L242.39,350.52z"/>
	</g>
	<g>
		<path d="M251.57,391.45c7.72,26.51,3.9,56.19-10.2,79.94c-4.65,7.95-10.42,15.21-17.03,21.53c6.05-6.86,11.32-14.34,15.68-22.3
			C253.27,446.68,256.99,418.19,251.57,391.45L251.57,391.45z"/>
	</g>
	<g>
		<path d="M239.28,707.05c6.46,3.37,10.81,10.76,10.58,18.05C247.3,718.46,243.83,712.52,239.28,707.05L239.28,707.05z"/>
	</g>
	<g>
		<path d="M297.79,463.5c1.34,80.31,1.35,161.52,0,241.83C296.45,625.02,296.46,543.82,297.79,463.5L297.79,463.5z"/>
	</g>
	<g>
		<path d="M298.21,298.96c1.37,36.3,1.38,72.64,0,108.93C296.83,371.6,296.84,335.25,298.21,298.96L298.21,298.96z"/>
	</g>
	<g>
		<path d="M460.19,506.34c2.73,6.47,5.49,14.25,6.63,20.6c7.36,1.97,15.14,2,22.72,1.88c7.63-0.24,15.23-1.16,22.69-2.72
			c14.88-3.08,29.29-9.09,41.16-18.67c0,0-0.2,0.86-0.2,0.86c-3.53-7.42-6.2-15.2-8.48-23.05c-2.28-7.85-4.07-15.89-5.15-24.02
			c-2.85-24.43-0.27-48.96-6.06-72.93c-6.9-32.48-25.07-60.79-56.2-74.41c-29.65-13.51-60.73-23.81-90.33-37.5
			c-14.79-6.55-30.67-12.64-41.84-24.85c-5.57-6.01-9.82-13.12-13.01-20.61c3.31,7.45,7.66,14.47,13.29,20.35
			c5.55,5.97,12.49,10.42,19.69,14.16c14.62,7.1,29.85,13.15,44.81,19.51c22.63,9.28,45.9,17.06,68.14,27.35
			c31.51,13.64,50.55,42.69,57.35,75.59c5.75,24.06,3.13,48.94,5.88,73.13c2.26,16.01,6.56,31.93,13.19,46.69
			c0,0,0.24,0.51,0.24,0.51c-3.17,2.51-6.5,4.82-9.97,6.9c-19.99,11.65-43.79,15.71-66.69,14.07c-3.85-0.35-7.73-0.75-11.44-1.92
			C465.14,520.09,462.99,513.09,460.19,506.34L460.19,506.34z"/>
	</g>
	<g>
		<path d="M486.09,434.66c-9.92,20.32-18.38,41.4-23.37,63.49c-1.74,7.32-3.05,14.77-5.38,22.04c-1.76,6.25-6.43,14.8-9.34,20.71
			c-3.34,6.75-6.62,13.54-9.51,20.47c-3.64,8.62-6.63,17.55-8.2,26.78c-0.58,3.57-1.61,13.03-2.06,16.79
			c-1.68,14.97-3.26,29.98-3.59,45.01c-0.13,8.42-0.13,16.95,2.46,24.92c0.95,2.71,1.93,5.55,1.97,8.45
			c0.17,3.42-0.68,7.98-1.1,11.38c-0.84,7.39-1.29,15-0.09,22.35c0.61,3.67,2.15,7.15,3.38,10.66c7.54,17.32,10.64,36.68,7.83,55.43
			c1.78-14.96,0.03-30.26-4.69-44.53c-1.3-3.5-2.85-6.96-4.19-10.5c-1.31-3.57-2.89-7.06-3.57-10.84
			c-1.32-7.52-0.96-15.21-0.2-22.76c0.36-3.32,1.15-7.85,0.95-11.13c-0.07-2.77-1-5.38-1.92-7.98c-2.71-8.24-2.75-17.03-2.65-25.49
			c0.27-15.15,1.8-30.19,3.43-45.21c0.88-6.56,1.66-16.11,3.29-22.49c1.72-7.41,4.31-14.58,7.27-21.57
			c2.95-6.98,6.27-13.78,9.64-20.53c2.84-5.69,7.6-14.3,9.43-20.41c2.37-7.09,3.78-14.53,5.61-21.85
			C466.74,475.78,475.62,454.71,486.09,434.66L486.09,434.66z"/>
	</g>
	<g>
		<path d="M437.64,327.28c-17.99,8.46-37.73,13.41-57.58,14.42C399.3,337.98,418.99,333.09,437.64,327.28L437.64,327.28z"/>
	</g>
	<g>
		<path d="M352.88,350.52c-1.02,5.42-2.4,10.58-4.25,15.77C347.72,360.78,349.34,354.83,352.88,350.52L352.88,350.52z"/>
	</g>
	<g>
		<path d="M343.7,391.45c-5.41,26.74-1.69,55.23,11.56,79.17c4.36,7.96,9.63,15.44,15.68,22.3c-6.61-6.32-12.39-13.58-17.03-21.53
			C339.8,447.64,335.99,417.96,343.7,391.45L343.7,391.45z"/>
	</g>
	<g>
		<path d="M356,707.05c-4.55,5.47-8.02,11.41-10.58,18.05C345.18,717.81,349.53,710.41,356,707.05L356,707.05z"/>
	</g>
	<g>
		<path d="M350.51,256.37c-2.51-18.74-1.81-37.94,2.26-56.42c0.02-0.41,0.38-0.8,0.84-0.63c0.12,0.03,0.27,0.19,0.27,0.2l0.09,0.11
			c0.06,0.07,0.13,0.15,0.18,0.22c1.1,1.57,2.5,3.62,4.18,4.57c2.37,1.44,5.37,0.02,6.87-2.05c2.44-3.47,2.83-7.83,3.87-11.92
			c1.43-5.5,3.81-10.77,5-16.35c1.07-4.83,4.1-17.84-2.8-19.11c-2.63,0.27-4.96,2.11-7.17,3.51c-0.3,0.24-0.69,0.43-1.09,0.23
			c-0.28-0.12-0.5-0.43-0.51-0.75c0.03-0.4,0.05-0.3,0.06-0.37c11.56-40.66-4.12-85.59-48.18-96.11
			c-16.41-3.59-34.28-1.87-49.31,5.81c-31.87,15.92-41.68,55.28-32.97,87.86c0.13,0.59,0.67,2.31,0.7,2.81
			c0.02,0.68-0.87,1.07-1.37,0.69c-1.48-1.04-3.1-2.07-4.71-2.86c-1-0.42-2.04-1.02-3.09-0.74c0,0-0.45,0.12-0.45,0.12
			c-7.95,3.37-0.4,24.95,1.82,31.09c2.06,5.26,1.89,11.37,5.09,16.09c3.2,3.96,7.05,3.23,9.79-0.78c0,0,1.25-1.74,1.25-1.74
			c0.09-0.11,0.18-0.23,0.27-0.34c0.36-0.46,1.02-0.2,1.09,0.3c1.57,7.38,2.75,14.85,3.31,22.38c0.84,11.4,0.48,22.87-1.02,34.18
			c2.24-18.76,1.27-37.86-3.05-56.25c0,0-0.03-0.13-0.03-0.13c-0.02-0.07-0.01-0.04,0.01,0.01c0.05,0.08,0.15,0.12,0.25,0.08
			c-0.92,1.43-2.67,4.06-4.54,5.13c-1.31,0.8-3.08,1.02-4.5,0.41c-7.16-2.66-6.42-12.96-9.01-18.93
			c-2.94-8.06-5.79-16.49-5.56-25.18c0.09-3.35,1.67-7.59,5.57-7.96c3.01,0.11,5.68,2.18,8.13,3.7c0,0,0.2,0.14,0.2,0.14
			c-0.14-0.1-0.41-0.14-0.61-0.04c-0.2,0.09-0.36,0.31-0.37,0.55c0.03,0.31,0.02,0.12,0,0.11l-0.04-0.13l-0.07-0.26
			c-14.21-48.92,11.97-99.66,66.47-99.87c11.55-0.21,23.12,2.64,33.43,7.87c33.72,16.94,43.16,58.97,32.94,92.27
			c-0.02-0.48-0.6-0.77-0.97-0.5c0,0,0.2-0.14,0.2-0.14l0.9-0.61c1.86-1.18,3.76-2.37,5.94-2.97c0.57-0.14,1.34-0.22,1.93-0.01
			c0,0,0.58,0.17,0.58,0.17c6.97,2.91,3.93,14.89,2.69,20.56c-1.24,5.6-3.63,10.8-5.13,16.32c-1.07,4.11-1.55,8.69-4.15,12.27
			c-1.76,2.44-5.4,3.95-8.14,2.22c-1.89-1.13-3.17-3.12-4.38-4.86c-0.05-0.07-0.1-0.13-0.15-0.2c-0.04-0.06-0.15-0.16-0.01-0.07
			c0.1,0.04,0.2,0,0.25-0.08c0.03-0.05,0.03-0.08,0.01-0.01l-0.03,0.13l-0.23,1.04C349.19,219.22,348.32,237.96,350.51,256.37
			L350.51,256.37z"/>
	</g>
</g>
</svg>
