<?xml version="1.0" encoding="utf-8"?>
<!-- Generator: Adobe Illustrator 28.0.0, SVG Export Plug-In . SVG Version: 6.00 Build 0)  -->
<svg version="1.1" id="Capa_1" xmlns="http://www.w3.org/2000/svg" xmlns:xlink="http://www.w3.org/1999/xlink" x="0px" y="0px"
	 viewBox="0 0 595.28 841.89" style="enable-background:new 0 0 595.28 841.89;" xml:space="preserve">
<style type="text/css">
	.st0{fill:#666666;}
</style>
<g>
	<path d="M236.33,141.27c1.18,4.95,1.59,10.4-0.31,15.24c-1.63,3.39-4.7,5.78-7.48,8.14c-11.52,9.11-24.37,16.41-36.81,24.09
		c-6.19,3.79-12.33,8.03-18.84,11.42c-14.2,7.77-29.4,13.7-44.61,19.06c-5.39,1.98-10.91,3.61-15.65,6.89
		c-10.7,7.16-19.03,17.54-25.32,28.71c-13.63,24.02-18.81,51.78-21.12,79.06c0,0-0.46-1.62-0.46-1.62
		c7.63,9.57,18.37,16.77,29.38,21.95c12.43,4.97,23.89,12.35,33.94,21.09c-0.77,15.6-0.14,31.72,5.91,46.24
		c1.24,3.21,4.23,11.37,5.43,14.68c4.65,13.12,8.74,26.48,12.15,39.98c1.66,6.56,5.77,23.76,7.75,30.14
		c3.09,10,5.92,20.26,6.89,30.74c0.75,7.02,0.61,14.13,0.12,21.08c-0.17,2.47-0.56,7.92-0.79,10.42
		c-0.69,6.98-2.06,13.99-4.24,20.65c-1.05,3.33-2.11,6.56-2.84,9.88c-1.41,6.6-1.99,13.56-1.63,20.29c0.2,3.39,0.89,6.71,1.56,10.14
		c2.47,10.41-0.45,21.33-5.16,30.66c-5.91,12.46-8.54,26.4-8.03,40.26c-1.04-13.86,1.19-28.04,6.85-40.77
		c2.81-6.27,5.11-12.77,5.32-19.67c0.44-6.97-2.35-13.47-2.92-20.42c-0.91-10.51,0.71-21.26,3.96-31.23
		c2.55-8.12,3.65-16.74,4.07-25.23c0.53-8.54,0.95-17.22-0.1-25.65c-0.73-6.77-2.24-13.45-4.1-20.03
		c-6.23-18.93-10.76-41.01-16.79-60.01c-4.05-12.98-9.06-26.37-13.91-39.11c-4.56-13.59-5.11-27.92-4.55-42.05
		c0,0,0.89,2.02,0.89,2.02c-7.23-6.05-14.82-11.49-23.23-15.69c-2.5-1.27-6.02-2.8-8.61-3.93c-8.96-4.14-17.18-9.57-24.46-16.21
		c-2.63-2.42-5.15-5.1-7.32-8.09c2-23.86,6.36-47.79,16.25-69.77c7.93-17.57,19.81-34.44,37.08-43.83
		c14.93-6.17,30.68-10.25,45.27-17.18c10.75-4.68,20.73-10.55,30.8-16.61c12.66-7.36,25.58-14.27,37.3-23.04
		c2.78-2.27,5.83-4.46,7.53-7.66C237.56,151.59,237.33,146.22,236.33,141.27L236.33,141.27z"/>
</g>
<g>
	<path class="st0" d="M163.3,635.57c4.07,8.57,8.37,16.59,14.12,23.96c5.84,7.36,13.05,14.03,17.04,22.77
		c2.85,5.79,4.85,11.98,5.56,18.32c-4.04-8.57-8.5-16.51-14.34-23.79c-3.87-4.83-8.59-9.29-12.1-14.51
		C168.14,654.38,164.45,645.08,163.3,635.57L163.3,635.57z"/>
</g>
<g>
	<path class="st0" d="M180.52,226.96c1.12,11.87-7.08,23.94-18.47,27.39C171.93,248.3,178.67,238.42,180.52,226.96L180.52,226.96z"
		/>
</g>
<g>
	<path class="st0" d="M241.11,145.83c4.87,13.46,5.11,28.73,0.62,42.33C243.45,174.04,243.25,159.9,241.11,145.83L241.11,145.83z"/>
</g>
<g>
	<path class="st0" d="M269.12,152.68c3.81,11.74,7.54,23.39,11.2,35.17C274.1,177.15,270.24,165.01,269.12,152.68L269.12,152.68z"/>
</g>
<g>
	<path class="st0" d="M280.95,197.5c3.07,12.6,7.09,24.78,12.14,36.73C285.56,223.58,281.28,210.53,280.95,197.5L280.95,197.5z"/>
</g>
<g>
	<path class="st0" d="M271.3,229.56c4.62,0.36,9.23,2.83,11.78,6.8c0.63,0.98,1.19,1.87,1.85,2.72c2,2.66,4.42,4.81,7.11,6.88
		c-2.19-0.65-4.25-1.79-6.06-3.25c-1.81-1.41-3.35-3.34-4.56-5.23C279.05,233.72,275.3,231.44,271.3,229.56L271.3,229.56z"/>
</g>
<g>
	<path class="st0" d="M177.2,215.97c14.22,0.2,28.39,2.71,42.06,6.53c13.66,3.7,27.86,4.42,41.97,3.63
		c-10.52,1.78-21.38,2.02-31.96,0.47c-10.55-1.6-20.64-5.32-31.11-7.2C191.23,218.02,184.24,216.87,177.2,215.97L177.2,215.97z"/>
</g>
<g>
	<path class="st0" d="M116.4,330.71c9.48,13.32,17.24,27.93,23.29,43.2c3.14,7.58,5.52,15.45,9.15,22.41
		c3.6,6.96,8.72,13.12,14.56,18.32c18.23,17.16,45.23,13.66,67.64,8.13c7.84-2.05,15.73-4.28,23.13-7.62
		c-6.98,4.32-14.71,7.27-22.44,9.98c-7.8,2.58-15.83,4.63-24.07,5.68c-17.63,2.39-33.98-0.18-47.56-12.42
		c-6.22-5.67-11.77-12.37-15.48-19.95c-3.29-6.6-6.11-16.23-8.57-23.17C130.77,359.88,124.08,345.09,116.4,330.71L116.4,330.71z"/>
</g>
<g>
	<path class="st0" d="M258.74,411.84c17.83-11.31,30.3-29.52,34.44-50.21C291.95,382.89,278.13,403.03,258.74,411.84L258.74,411.84z
		"/>
</g>
<g>
	<path class="st0" d="M181.27,393.89c0.18,1.67,0.63,2.25,1.32,2.94c0.16,0.99,0.25,1.71,1.41,2.97c-1.36,2.44-4.94,1.51-5.93-0.84
		C176.87,396.69,178.52,393.3,181.27,393.89L181.27,393.89z"/>
</g>
<g>
	<path class="st0" d="M189.36,397.08c0.1,7.26-8.91,11.33-14.29,6.27c-3.61-3.19-3.61-9.37,0-12.55
		C180.45,385.74,189.46,389.82,189.36,397.08L189.36,397.08z M189.36,397.08c0.02-6.86-8.56-10.11-13.07-5.06
		c-4.23,4.51-1.15,12.22,5.06,12.57C185.51,405.01,189.46,401.3,189.36,397.08L189.36,397.08z"/>
</g>
<g>
	<path class="st0" d="M151.47,420.56c1.7,6.53,4.42,12.66,9.1,17.54c4.71,4.91,8.94,10.53,11.44,16.91
		c-3.94-5.61-8.12-10.67-12.92-15.56C154.33,434.39,151.56,427.46,151.47,420.56L151.47,420.56z"/>
</g>
<g>
	<path class="st0" d="M154.37,441.1c3.75,11.66,9.37,22.44,16.81,32.16C161.62,465.41,155.39,453.41,154.37,441.1L154.37,441.1z"/>
</g>
<g>
	<path class="st0" d="M160.39,470.77c4.36,15.8,10.83,30.79,19.3,44.82C168.9,503.14,162.03,487.15,160.39,470.77L160.39,470.77z"/>
</g>
<g>
	<path class="st0" d="M293.19,424.5c0.25,7.35-3.19,14.89-8.92,19.5C287.76,437.66,290.69,431.3,293.19,424.5L293.19,424.5z"/>
</g>
<g>
	<path class="st0" d="M282.71,455.1c-6.23,0.35-12.18,0.93-18.36,1.76C269.64,453.36,276.84,452.68,282.71,455.1L282.71,455.1z"/>
</g>
<g>
	<path class="st0" d="M258.02,461.02c-2.69,2.19-6.71,4.91-9.54,6.95c-2.89,1.99-6.77,4.84-9.76,6.64
		C243.5,468.23,250.41,463.38,258.02,461.02L258.02,461.02z"/>
</g>
<g>
	<path class="st0" d="M233.22,480.31c-4.16,6.01-7.37,12.61-9.33,19.61c-2.28,9.63-2.72,19.96-10.45,27.3
		c-1.75,1.76-3.69,3.36-5.85,4.55c3.79-3.11,6.84-7,9.02-11.23c3.19-6.6,3.45-14.1,5.45-21.11
		C224.29,492.34,228.05,485.62,233.22,480.31L233.22,480.31z"/>
</g>
<g>
	<path class="st0" d="M233.12,531.77c1.22-2.55,3.83-4.22,6.64-4.36C238.35,529.89,236.01,531.4,233.12,531.77L233.12,531.77z"/>
</g>
<g>
	<path class="st0" d="M250.34,520.46c7.97-4.57,17.76-6.17,26.77-4.36C268.05,517.09,259.24,518.51,250.34,520.46L250.34,520.46z"/>
</g>
<g>
	<path class="st0" d="M246.09,527.83c4.95-2.12,10.06-4.09,15.42-4.81c5.44-0.41,10.84,0.38,16.01,2.01
		c-5.3-0.03-10.6-0.49-15.83-0.02C256.45,525.65,251.38,527.27,246.09,527.83L246.09,527.83z"/>
</g>
<g>
	<path class="st0" d="M210.09,549.1c1.6,9.87,3.19,19.6,4.77,29.46C210.61,569.46,208.93,559.07,210.09,549.1L210.09,549.1z"/>
</g>
<g>
	<path class="st0" d="M214.86,586.24c1.08,9.51,1.01,19.12,0.52,28.66c-0.61,9.5,0.54,18.89,2.59,28.19
		c-3.63-8.89-5.13-18.7-4.59-28.29C213.87,606.39,214.41,594.55,214.86,586.24L214.86,586.24z"/>
</g>
<g>
	<path class="st0" d="M219.84,649.53c4.44,9.42,7.6,19.45,9.03,29.78c-2.23-4.74-3.7-9.69-5.31-14.65
		C222.03,659.68,220.63,654.7,219.84,649.53L219.84,649.53z"/>
</g>
<g>
	<path class="st0" d="M239.63,616.2c9.88,0.91,20.59,1.18,30.5,0.78C260.31,620.13,249.28,619.84,239.63,616.2L239.63,616.2z"/>
</g>
<g>
	<path class="st0" d="M237.99,572.23c6.43,0.32,12.54-0.32,18.71-2.18c6.29-1.68,13.21-1.12,19.16,1.46
		c-6.27-0.97-12.55-1.21-18.67,0.48C251.01,573.79,244.18,574.17,237.99,572.23L237.99,572.23z"/>
</g>
<g>
	<path class="st0" d="M279.7,567.67c2.74-0.54,5.32-0.42,7.99,0.41C285.46,570.01,281.72,569.8,279.7,567.67L279.7,567.67z"/>
</g>
<g>
	<path class="st0" d="M293.91,573.06c4.24,10.34,4.29,22.52,0.1,32.89C295.45,594.97,295.43,584.04,293.91,573.06L293.91,573.06z"/>
</g>
<g>
	<path class="st0" d="M292.15,529.59c4.82,9.91,5.21,22.07,1.04,32.27C294.59,551.05,294.26,540.29,292.15,529.59L292.15,529.59z"/>
</g>
<g>
	<path class="st0" d="M293.39,466.1c0.71,7.86,1.47,15.57,2.66,23.37c1.08,7.86,0.37,16.07-2.35,23.52
		c1.12-7.76,1.5-15.51,0.37-23.27C292.97,481.93,292.5,473.95,293.39,466.1L293.39,466.1z"/>
</g>
<g>
	<path class="st0" d="M301.28,466.2c0.21,18.31-2.71,36.46-1.24,54.78c-2.14-8.96-2.5-18.29-1.87-27.46
		C298.89,484.39,299.78,475.26,301.28,466.2L301.28,466.2z"/>
</g>
<g>
	<path class="st0" d="M301.02,537.38c0.97,16.25,0.46,32.59-1.87,48.71c-0.34-7.11-0.18-14.24,0.11-21.34
		C299.47,555.6,299.88,546.46,301.02,537.38L301.02,537.38z"/>
</g>
<g>
	<path class="st0" d="M299.31,593.71c0.83,2.32,1.08,4.63,1.15,7.04c0.23,2.39,0.3,4.72-0.22,7.13
		C298.24,603.45,297.92,598.36,299.31,593.71L299.31,593.71z"/>
</g>
<g>
	<path class="st0" d="M296.74,626.08c1.94,4.76,1.75,10.42-0.54,15.02C295.75,636.04,295.94,631.09,296.74,626.08L296.74,626.08z"/>
</g>
<g>
	<path class="st0" d="M291.76,633.47c-2.66-6.97,7.91-11.64,11.15-4.73c0.85,1.88,0.59,4.08-0.49,5.58
		C303.76,625.44,292.28,624.98,291.76,633.47L291.76,633.47z"/>
</g>
<g>
	<path class="st0" d="M288.03,628.57c-0.19-8.89,11.89-12.38,16.92-5.22c1.53,2.1,2.09,4.78,1.6,7.16
		C305.15,619.65,291.47,618.07,288.03,628.57L288.03,628.57z"/>
</g>
<g>
	<path d="M358.94,141.27c-1,4.95-1.23,10.32,0.8,15.03c1.7,3.2,4.75,5.4,7.53,7.66c11.72,8.78,24.64,15.68,37.3,23.04
		c10.07,6.06,20.04,11.92,30.8,16.61c14.59,6.93,30.34,11.01,45.27,17.18c17.27,9.38,29.15,26.26,37.08,43.83
		c9.89,21.98,14.25,45.91,16.25,69.77c-2.17,3-4.69,5.67-7.32,8.09c-7.28,6.64-15.5,12.07-24.46,16.21
		c-2.62,1.14-6.12,2.65-8.61,3.93c-8.4,4.2-16,9.64-23.23,15.69c0,0,0.89-2.02,0.89-2.02c0.57,14.12,0.01,28.46-4.55,42.05
		c-4.85,12.74-9.86,26.12-13.91,39.11c-6.04,19.01-10.56,41.07-16.79,60.01c-1.86,6.58-3.37,13.26-4.1,20.03
		c-1.05,8.42-0.63,17.13-0.1,25.65c0.43,8.47,1.53,17.11,4.07,25.23c3.25,9.97,4.87,20.73,3.96,31.23
		c-0.56,6.96-3.36,13.46-2.92,20.42c0.21,6.88,2.51,13.4,5.32,19.67c5.66,12.73,7.89,26.92,6.85,40.77
		c0.51-13.85-2.12-27.79-8.03-40.26c-1.43-3.15-2.93-6.32-3.98-9.69c-2.17-6.7-2.7-14.09-1.17-20.97c0.67-3.43,1.36-6.75,1.56-10.14
		c0.37-6.73-0.22-13.69-1.63-20.29c-0.73-3.31-1.79-6.55-2.84-9.88c-2.18-6.66-3.55-13.67-4.24-20.65
		c-0.24-2.61-0.61-7.81-0.79-10.42c-0.49-6.95-0.62-14.06,0.12-21.08c0.97-10.48,3.8-20.73,6.89-30.74
		c1.94-6.32,6.06-23.41,7.75-30.14c3.4-13.5,7.5-26.86,12.15-39.98c1.23-3.36,4.17-11.49,5.43-14.68
		c6.05-14.53,6.68-30.65,5.91-46.24c10.04-8.74,21.51-16.13,33.94-21.09c11.01-5.18,21.74-12.38,29.38-21.95
		c0,0-0.46,1.61-0.46,1.61c-2.32-27.28-7.49-55.04-21.12-79.06c-6.29-11.16-14.62-21.55-25.32-28.71
		c-4.75-3.27-10.26-4.92-15.65-6.89c-15.21-5.35-30.4-11.29-44.61-19.06c-6.51-3.39-12.65-7.62-18.84-11.42
		c-12.45-7.67-25.29-14.98-36.81-24.09c-2.78-2.37-5.85-4.75-7.48-8.14C357.35,151.67,357.76,146.23,358.94,141.27L358.94,141.27z"
		/>
</g>
<g>
	<path class="st0" d="M431.98,635.57c-1.15,9.51-4.84,18.81-10.29,26.75c-3.51,5.22-8.23,9.68-12.1,14.51
		c-5.84,7.28-10.3,15.22-14.34,23.79c0.72-6.34,2.71-12.53,5.56-18.32c3.99-8.74,11.2-15.41,17.04-22.76
		C423.61,652.16,427.91,644.14,431.98,635.57L431.98,635.57z"/>
</g>
<g>
	<path class="st0" d="M414.76,226.96c1.84,11.45,8.59,21.33,18.47,27.39C421.84,250.9,413.64,238.83,414.76,226.96L414.76,226.96z"
		/>
</g>
<g>
	<path class="st0" d="M354.17,145.83c-2.15,14.07-2.35,28.2-0.62,42.33C349.06,174.57,349.3,159.3,354.17,145.83L354.17,145.83z"/>
</g>
<g>
	<path class="st0" d="M326.16,152.68c-1.13,12.33-4.98,24.47-11.2,35.17C318.62,176.07,322.35,164.42,326.16,152.68L326.16,152.68z"
		/>
</g>
<g>
	<path class="st0" d="M314.33,197.5c-0.33,13.03-4.62,26.08-12.14,36.73C307.24,222.28,311.26,210.1,314.33,197.5L314.33,197.5z"/>
</g>
<g>
	<path class="st0" d="M323.98,229.56c-4,1.88-7.75,4.16-10.12,7.91c-1.21,1.89-2.75,3.82-4.56,5.23c-1.81,1.47-3.87,2.6-6.06,3.25
		c2.69-2.07,5.11-4.22,7.11-6.88c0.66-0.85,1.23-1.74,1.85-2.72C314.75,232.39,319.35,229.91,323.98,229.56L323.98,229.56z"/>
</g>
<g>
	<path class="st0" d="M418.08,215.97c-7.04,0.9-14.03,2.05-20.96,3.43c-10.47,1.88-20.56,5.6-31.11,7.2
		c-10.59,1.55-21.45,1.31-31.96-0.47c14.11,0.79,28.31,0.07,41.97-3.63C389.69,218.68,403.85,216.17,418.08,215.97L418.08,215.97z"
		/>
</g>
<g>
	<path class="st0" d="M478.87,330.71c-7.68,14.37-14.36,29.17-19.65,44.56c-2.51,7-5.27,16.54-8.57,23.17
		c-3.71,7.59-9.25,14.28-15.48,19.95c-13.58,12.24-29.95,14.81-47.56,12.42c-8.24-1.06-16.27-3.1-24.07-5.68
		c-7.73-2.7-15.46-5.66-22.44-9.98c7.4,3.34,15.3,5.57,23.13,7.62c22.4,5.53,49.42,9.03,67.64-8.13
		c5.84-5.2,10.96-11.36,14.56-18.32c3.63-6.96,6.01-14.83,9.15-22.41C461.63,358.64,469.39,344.03,478.87,330.71L478.87,330.71z"/>
</g>
<g>
	<path class="st0" d="M336.53,411.84c-19.39-8.81-33.21-28.95-34.44-50.21C306.23,382.32,318.7,400.53,336.53,411.84L336.53,411.84z
		"/>
</g>
<g>
	<path class="st0" d="M414.01,393.89c2.75-0.6,4.4,2.79,3.21,5.07c-0.99,2.35-4.57,3.28-5.93,0.84c1.15-1.26,1.25-1.98,1.41-2.97
		C413.38,396.14,413.82,395.57,414.01,393.89L414.01,393.89z"/>
</g>
<g>
	<path class="st0" d="M405.91,397.08c-0.02,6.86,8.57,10.12,13.07,5.06c4.24-4.46,1.11-12.26-5.06-12.57
		C409.77,389.16,405.82,392.86,405.91,397.08L405.91,397.08z M405.91,397.08c-0.1-7.26,8.91-11.34,14.29-6.28
		c3.6,3.18,3.61,9.36,0,12.55C414.82,408.41,405.82,404.35,405.91,397.08L405.91,397.08z"/>
</g>
<g>
	<path class="st0" d="M443.81,420.56c-0.09,6.9-2.86,13.84-7.62,18.88c-4.8,4.9-8.99,9.96-12.92,15.56c2.5-6.38,6.73-12,11.44-16.91
		C439.39,433.21,442.11,427.08,443.81,420.56L443.81,420.56z"/>
</g>
<g>
	<path class="st0" d="M440.9,441.1c-1.01,12.32-7.25,24.31-16.81,32.16C431.54,463.53,437.16,452.76,440.9,441.1L440.9,441.1z"/>
</g>
<g>
	<path class="st0" d="M434.88,470.77c-1.64,16.38-8.51,32.37-19.3,44.82C424.05,501.56,430.52,486.57,434.88,470.77L434.88,470.77z"
		/>
</g>
<g>
	<path class="st0" d="M302.09,424.5c2.49,6.8,5.42,13.16,8.92,19.5C305.28,439.39,301.83,431.85,302.09,424.5L302.09,424.5z"/>
</g>
<g>
	<path class="st0" d="M312.57,455.1c5.87-2.43,13.07-1.75,18.36,1.76C324.75,456.04,318.79,455.45,312.57,455.1L312.57,455.1z"/>
</g>
<g>
	<path class="st0" d="M337.26,461.02c7.61,2.36,14.52,7.21,19.3,13.59c-2.97-1.79-6.88-4.66-9.76-6.64
		C343.96,465.92,339.96,463.22,337.26,461.02L337.26,461.02z"/>
</g>
<g>
	<path class="st0" d="M362.05,480.31c5.17,5.31,8.93,12.02,11.15,19.12c2,7.01,2.26,14.51,5.45,21.11
		c2.18,4.22,5.23,8.12,9.02,11.23c-2.16-1.19-4.09-2.78-5.85-4.55c-7.73-7.35-8.17-17.66-10.45-27.3
		C369.43,492.92,366.22,486.33,362.05,480.31L362.05,480.31z"/>
</g>
<g>
	<path class="st0" d="M362.16,531.77c-2.89-0.37-5.23-1.88-6.64-4.36C358.33,527.55,360.94,529.22,362.16,531.77L362.16,531.77z"/>
</g>
<g>
	<path class="st0" d="M344.94,520.46c-8.9-1.96-17.71-3.37-26.77-4.36C327.18,514.29,336.97,515.89,344.94,520.46L344.94,520.46z"/>
</g>
<g>
	<path class="st0" d="M349.19,527.83c-5.3-0.56-10.36-2.18-15.61-2.82c-5.23-0.47-10.53-0.01-15.83,0.02
		c5.17-1.63,10.57-2.42,16.01-2.01C339.13,523.74,344.23,525.71,349.19,527.83L349.19,527.83z"/>
</g>
<g>
	<path class="st0" d="M385.19,549.1c1.16,9.97-0.52,20.37-4.77,29.46C382,568.69,383.59,558.96,385.19,549.1L385.19,549.1z"/>
</g>
<g>
	<path class="st0" d="M380.42,586.24c0.45,8.26,0.99,20.19,1.48,28.57c0.54,9.59-0.96,19.39-4.59,28.29
		c2.05-9.3,3.2-18.69,2.59-28.19C379.41,605.36,379.33,595.75,380.42,586.24L380.42,586.24z"/>
</g>
<g>
	<path class="st0" d="M375.44,649.53c-0.79,5.17-2.2,10.15-3.72,15.13c-1.6,4.95-3.08,9.91-5.31,14.65
		C367.84,668.98,371,658.94,375.44,649.53L375.44,649.53z"/>
</g>
<g>
	<path class="st0" d="M355.65,616.2c-9.65,3.64-20.68,3.93-30.5,0.78C335.05,617.37,345.77,617.11,355.65,616.2L355.65,616.2z"/>
</g>
<g>
	<path class="st0" d="M357.28,572.23c-6.19,1.94-13.02,1.55-19.19-0.25c-6.12-1.69-12.4-1.45-18.67-0.48
		c5.95-2.58,12.87-3.14,19.16-1.46C344.74,571.91,350.85,572.55,357.28,572.23L357.28,572.23z"/>
</g>
<g>
	<path class="st0" d="M315.58,567.67c-2.02,2.13-5.76,2.34-7.99,0.42C310.26,567.25,312.83,567.13,315.58,567.67L315.58,567.67z"/>
</g>
</svg>
