<?xml version="1.0" encoding="utf-8"?>
<!-- Generator: Adobe Illustrator 28.0.0, SVG Export Plug-In . SVG Version: 6.00 Build 0)  -->
<svg version="1.1" id="Capa_1" xmlns="http://www.w3.org/2000/svg" xmlns:xlink="http://www.w3.org/1999/xlink" x="0px" y="0px"
	 viewBox="0 0 595.28 841.89" style="enable-background:new 0 0 595.28 841.89;" xml:space="preserve">
<g>
	<g>
		<path d="M236.33,141.27c1.12,4.95,1.46,10.37-0.47,15.17c-1.65,3.33-4.72,5.65-7.49,7.98c-11.58,9.01-24.44,16.2-36.95,23.79
			c-6.25,3.77-12.36,7.91-18.88,11.27c-14.21,7.68-29.35,13.51-44.57,18.79c-5.45,1.97-11.1,3.63-15.91,6.93
			c-33.45,23.01-44.17,70.34-47.33,108.56c0,0-0.18-0.62-0.18-0.62c3.77,4.94,8.63,9.11,13.68,12.85
			c5.09,3.73,10.55,6.97,16.27,9.58c12.07,4.84,23.21,11.92,33.02,20.4c-0.63,13.82-0.16,28.06,4.24,41.26
			c2.07,5.66,5.2,13.72,7.23,19.49c6.92,18.9,12.52,40.37,17.29,60c3.5,13.43,8.51,26.55,9.73,40.49
			c0.76,6.94,0.66,13.96,0.19,20.89c-0.45,6.93-0.84,13.91-2.22,20.75c-1.23,6.84-3.91,13.34-5.4,20.09
			c-0.73,3.36-1.17,6.78-1.42,10.22c-0.61,6.92-0.04,13.75,1.56,20.52c2.51,10.32-0.31,21.06-4.9,30.37
			c-5.86,12.55-8.35,26.58-7.66,40.42c-0.85-13.83,1.48-27.93,7.22-40.61c4.44-9.3,7.13-19.8,4.53-30.02
			c-1.16-5.05-2.11-10.29-1.99-15.53c0.08-5.23,0.5-10.46,1.58-15.6c0.71-3.43,1.75-6.76,2.75-10.07c2.07-6.6,3.3-13.38,3.9-20.26
			c0.73-10.29,1.58-20.73,0.36-31.01c-1.06-10.33-3.95-20.29-7.09-30.17c-4.59-15.58-8.65-34.75-13.6-50.17
			c-4.01-13.04-9.01-26.4-13.87-39.17c-4.48-13.35-5.02-27.56-4.45-41.49c0,0,0.35,0.8,0.35,0.8c-7.28-6.11-15.02-11.64-23.52-15.88
			c-2.52-1.28-6.05-2.82-8.66-3.95c-11.71-5.57-22.83-13.07-30.86-23.38c3.33-39.02,14.08-86.63,48.44-109.97
			c4.93-3.32,10.72-5.02,16.26-6.97c13.86-4.7,27.56-9.85,40.64-16.42c7.9-3.88,15.3-8.52,22.85-13.07
			c12.6-7.45,25.5-14.47,37.17-23.34c2.79-2.3,5.84-4.55,7.52-7.82C237.68,151.61,237.39,146.22,236.33,141.27L236.33,141.27z"/>
	</g>
	<g>
		<path d="M163.3,635.57c4.19,11.83,10.35,22.8,18.94,31.97c8.7,9.17,15.17,20.69,17.79,33.08c-4.15-11.87-10.61-22.67-19.28-31.75
			C172.12,659.59,165.98,647.94,163.3,635.57L163.3,635.57z"/>
	</g>
	<g>
		<path d="M180.52,226.96c0.35,11.8-7.43,23.25-18.47,27.39c1.27-0.71,2.51-1.44,3.68-2.29C174.09,246.4,179.51,237,180.52,226.96
			L180.52,226.96z"/>
	</g>
	<g>
		<path d="M241.11,145.83c4.19,13.65,4.41,28.56,0.62,42.33c0.27-1.76,0.56-3.52,0.76-5.28
			C244.12,170.55,243.54,158.02,241.11,145.83L241.11,145.83z"/>
	</g>
	<g>
		<path d="M269.12,152.68c3.14,11.89,6.89,23.65,11.2,35.17C274.74,176.84,270.93,164.89,269.12,152.68L269.12,152.68z"/>
	</g>
	<g>
		<path d="M280.95,197.5c2.39,12.73,6.46,25.09,12.14,36.73C286.17,223.21,281.97,210.46,280.95,197.5L280.95,197.5z"/>
	</g>
	<g>
		<path d="M271.3,229.56c4.48,0.77,8.87,3.17,11.37,7.08c2.34,3.86,5.55,6.94,9.38,9.32c-1.05-0.41-2.05-0.95-3.04-1.52
			c-2.92-1.78-5.39-4.34-7.17-7.23C279.44,233.41,275.44,231.04,271.3,229.56L271.3,229.56z"/>
	</g>
	<g>
		<path d="M177.2,215.97c14.19,0.59,28.28,3.21,41.94,7.02c13.68,3.73,28,4.32,42.1,3.15c-14.08,1.99-28.57,1.47-42.35-2.18
			C205.25,220.06,191.31,217.36,177.2,215.97L177.2,215.97z"/>
	</g>
	<g>
		<path d="M116.4,330.71c8.96,13.66,16.36,28.35,22.19,43.62c3.03,7.59,5.32,15.47,8.95,22.65c3.63,7.16,8.91,13.48,14.87,18.79
			c18.52,17.51,46.24,13.94,68.84,7.71c7.81-2.22,15.64-4.7,22.93-8.33c-7.11,4.02-14.9,6.74-22.65,9.27
			c-23.03,7.08-51.29,10.74-70.44-7.16c-6.14-5.57-11.47-12.06-15.17-19.48c-3.3-6.44-6.25-16.11-8.76-22.93
			C131.66,359.55,124.65,344.79,116.4,330.71L116.4,330.71z"/>
	</g>
	<g>
		<path d="M258.74,411.84c15.83-9.32,27.88-24.77,32.7-42.53c0.74-2.52,1.28-5.09,1.75-7.69
			C291.21,382.74,277.73,402.39,258.74,411.84L258.74,411.84z"/>
	</g>
	<g>
		<path d="M181.27,393.89c-1.06,2.97,0.12,4.84,2.72,5.91c-1.5,1.12-3.83,0.22-4.57-1.48C178.57,396.67,179.43,394.28,181.27,393.89
			L181.27,393.89z"/>
	</g>
	<g>
		<path d="M189.36,397.08c0.07,7.17-8.8,11-13.99,5.97c-3.35-3.07-3.36-8.87,0-11.94C180.56,386.08,189.43,389.91,189.36,397.08
			L189.36,397.08z M189.36,397.08c0.05-6.95-8.67-10.4-13.38-5.36c-2.85,2.88-2.85,7.85,0,10.73
			C180.69,407.49,189.42,404.03,189.36,397.08L189.36,397.08z"/>
	</g>
	<g>
		<path d="M151.47,420.56c1.29,6.63,4.04,12.96,8.73,17.87c4.72,4.89,8.94,10.39,11.81,16.57c-0.91-1.43-1.82-2.86-2.81-4.24
			c-2.85-4.23-6.21-7.96-9.74-11.66C154.72,434.11,151.99,427.39,151.47,420.56L151.47,420.56z"/>
	</g>
	<g>
		<path d="M154.37,441.1c2.71,10.32,7.36,20.15,13.93,28.58c0.91,1.23,1.9,2.4,2.88,3.58C162.14,464.9,156.09,453.29,154.37,441.1
			L154.37,441.1z"/>
	</g>
	<g>
		<path d="M160.39,470.77c3.26,13.94,8.56,27.39,16.03,39.61c1.04,1.76,2.15,3.48,3.26,5.21
			C169.49,502.71,162.74,487.03,160.39,470.77L160.39,470.77z"/>
	</g>
	<g>
		<path d="M293.19,424.5c-0.45,7.25-3.73,14.42-8.92,19.5C288.37,437.99,291.34,431.54,293.19,424.5L293.19,424.5z"/>
	</g>
	<g>
		<path d="M282.71,455.1c-6.26-0.34-12.28,0.25-18.36,1.76C269.91,454.02,276.7,453.38,282.71,455.1L282.71,455.1z"/>
	</g>
	<g>
		<path d="M258.02,461.02c-6.7,4.23-13.05,8.71-19.3,13.59C244,468.72,250.69,464.02,258.02,461.02L258.02,461.02z"/>
	</g>
	<g>
		<path d="M233.22,480.31c-4.43,5.83-7.76,12.48-9.8,19.48c-1.86,7.11-2.19,14.67-5.78,21.3c-2.48,4.3-5.88,8.07-10.05,10.68
			c1.97-1.46,3.74-3.16,5.29-5.03c1.56-1.86,2.98-3.87,4.08-6.01c3.32-6.53,3.6-14.15,5.58-21.17
			C224.66,492.49,228.32,485.82,233.22,480.31L233.22,480.31z"/>
	</g>
	<g>
		<path d="M233.12,531.77c1.73-2.08,4.05-3.55,6.64-4.36C237.89,529.4,235.63,530.81,233.12,531.77L233.12,531.77z"/>
	</g>
	<g>
		<path d="M250.34,520.46c8.25-3.93,17.69-5.46,26.77-4.36C268.02,516.39,259.04,517.84,250.34,520.46L250.34,520.46z"/>
	</g>
	<g>
		<path d="M246.09,527.83c5.06-1.71,10.15-3.62,15.47-4.31c5.38-0.43,10.75,0.3,15.97,1.51c-1.33-0.1-2.66-0.24-3.99-0.33
			c-3.94-0.32-7.96-0.52-11.89-0.19C256.39,525.17,251.31,526.87,246.09,527.83L246.09,527.83z"/>
	</g>
	<g>
		<path d="M210.09,549.1c0.83,8.68,2.06,17.3,3.97,25.8c0,0,0.8,3.66,0.8,3.66C211.27,569.22,209.63,559.09,210.09,549.1
			L210.09,549.1z"/>
	</g>
	<g>
		<path d="M214.86,586.24c1.02,11.91-0.01,23.85-0.11,35.75c0.22,7.13,1.39,14.21,3.22,21.1c-3.24-9.02-4.62-18.7-4.09-28.26
			C214.47,605.3,214.73,595.79,214.86,586.24L214.86,586.24z"/>
	</g>
	<g>
		<path d="M219.84,649.53c3.79,9.64,6.92,19.62,9.03,29.78C225.45,669.52,222.33,659.58,219.84,649.53L219.84,649.53z"/>
	</g>
	<g>
		<path d="M239.63,616.2c8.83,1.37,17.77,1.84,26.67,1.1c1.28-0.08,2.55-0.22,3.83-0.32C260.15,619.43,249.47,619.16,239.63,616.2
			L239.63,616.2z"/>
	</g>
	<g>
		<path d="M237.99,572.23c6.37,0.74,12.71,0.13,18.83-1.7c6.24-1.69,13-1.19,19.04,0.97c-1.57-0.33-3.13-0.63-4.71-0.82
			c-4.7-0.65-9.5-0.41-14.09,0.81c-1.54,0.38-3.09,0.82-4.69,1.1C247.63,573.45,242.69,573.33,237.99,572.23L237.99,572.23z"/>
	</g>
	<g>
		<path d="M279.7,567.67c2.79,0.14,5.2,0.26,7.99,0.41C285.2,569.32,282.05,569.15,279.7,567.67L279.7,567.67z"/>
	</g>
	<g>
		<path d="M293.91,573.06c3.56,10.55,3.59,22.31,0.1,32.89c0.24-1.37,0.5-2.73,0.68-4.1C296.17,592.29,295.8,582.54,293.91,573.06
			L293.91,573.06z"/>
	</g>
	<g>
		<path d="M292.15,529.59c3.65,8.9,4.32,18.96,2.17,28.32c-0.33,1.33-0.68,2.66-1.13,3.95
			C295.29,551.17,294.95,540.13,292.15,529.59L292.15,529.59z"/>
	</g>
	<g>
		<path d="M293.39,466.1c0.31,7.85,0.97,15.66,2.17,23.43c1.06,7.83,0.47,15.91-1.85,23.46c1.51-7.67,2.02-15.57,0.86-23.33
			C293.48,481.89,292.9,473.96,293.39,466.1L293.39,466.1z"/>
	</g>
	<g>
		<path d="M301.28,466.2c-0.49,18.27-3.42,36.52-1.24,54.78C296.51,502.86,299.45,484.36,301.28,466.2L301.28,466.2z"/>
	</g>
	<g>
		<path d="M301.02,537.38c0.27,16.21-0.24,32.56-1.87,48.71c-0.03-8.01,0.48-16.38,0.68-24.36
			C300.11,553.6,300.39,545.48,301.02,537.38L301.02,537.38z"/>
	</g>
	<g>
		<path d="M299.31,593.71c0.68,4.75,0.99,9.36,0.93,14.16C298.92,603.28,298.62,598.44,299.31,593.71L299.31,593.71z"/>
	</g>
	<g>
		<path d="M296.74,626.08c1.25,4.91,1.06,10.22-0.54,15.02C296.44,636.02,296.62,631.16,296.74,626.08L296.74,626.08z"/>
	</g>
	<g>
		<path d="M291.76,633.47c-1.94-6.55,7.59-10.85,10.8-4.55c0.86,1.74,0.73,3.82-0.14,5.4c0.5-1.74,0.31-3.59-0.55-5.04
			C298.65,624.12,291.15,627.82,291.76,633.47L291.76,633.47z"/>
	</g>
	<g>
		<path d="M288.03,628.57c0.82-10.44,15.46-11.7,18.24-1.67c0.29,1.19,0.42,2.42,0.27,3.61c-0.14-2.39-1-4.69-2.51-6.43
			C298.99,618.25,289.52,621.1,288.03,628.57L288.03,628.57z"/>
	</g>
	<g>
		<path d="M358.94,141.27c-1.06,4.95-1.35,10.35,0.63,15.1c1.68,3.26,4.74,5.53,7.52,7.82c11.66,8.87,24.57,15.89,37.17,23.34
			c7.55,4.55,14.95,9.19,22.85,13.07c13.08,6.57,26.78,11.72,40.64,16.42c5.54,1.95,11.33,3.64,16.26,6.97
			c34.35,23.32,45.11,70.97,48.44,109.97c-8.03,10.3-19.16,17.81-30.86,23.38c-2.64,1.15-6.15,2.67-8.66,3.95
			c-8.5,4.25-16.24,9.78-23.52,15.88c0,0,0.35-0.8,0.35-0.8c0.57,13.92,0.02,28.14-4.45,41.49c-4.86,12.78-9.86,26.13-13.87,39.17
			c-4.94,15.42-9.01,34.6-13.6,50.17c-3.14,9.88-6.03,19.85-7.09,30.17c-1.22,10.27-0.37,20.71,0.36,31.01
			c0.6,6.88,1.83,13.66,3.9,20.26c1,3.31,2.05,6.65,2.75,10.07c1.08,5.14,1.49,10.36,1.58,15.6c0.13,5.23-0.83,10.48-1.99,15.53
			c-2.6,10.21,0.08,20.73,4.53,30.02c5.74,12.68,8.07,26.78,7.22,40.61c0.69-13.84-1.8-27.87-7.66-40.42
			c-4.6-9.32-7.42-20.04-4.9-30.37c1.61-6.78,2.18-13.59,1.56-20.52c-0.25-3.44-0.69-6.86-1.42-10.22
			c-1.48-6.75-4.16-13.25-5.4-20.09c-1.38-6.83-1.76-13.82-2.22-20.75c-0.46-6.93-0.57-13.94,0.19-20.89
			c1.22-13.94,6.23-27.06,9.73-40.49c4.79-19.7,10.37-41.07,17.29-60c2.03-5.84,5.15-13.81,7.23-19.49
			c4.4-13.2,4.87-27.44,4.24-41.26c9.81-8.48,20.95-15.56,33.02-20.4c5.72-2.61,11.19-5.85,16.27-9.58
			c5.05-3.74,9.91-7.91,13.68-12.85l-0.18,0.62c-3.16-38.24-13.88-85.53-47.33-108.56c-4.82-3.29-10.46-4.96-15.91-6.93
			c-15.22-5.28-30.36-11.11-44.57-18.79c-6.52-3.36-12.64-7.5-18.88-11.27c-12.51-7.59-25.37-14.77-36.95-23.79
			c-2.78-2.35-5.84-4.65-7.49-7.98C357.48,151.64,357.83,146.22,358.94,141.27L358.94,141.27z"/>
	</g>
	<g>
		<path d="M431.98,635.57c-2.68,12.37-8.83,24.02-17.45,33.3c-8.67,9.08-15.13,19.88-19.28,31.75c2.62-12.4,9.09-23.91,17.79-33.08
			C421.63,658.38,427.79,647.4,431.98,635.57L431.98,635.57z"/>
	</g>
	<g>
		<path d="M414.76,226.96c1.01,10.03,6.42,19.43,14.79,25.1c1.17,0.85,2.41,1.58,3.68,2.29
			C422.19,250.21,414.41,238.76,414.76,226.96L414.76,226.96z"/>
	</g>
	<g>
		<path d="M354.17,145.83c-2.44,12.19-3.02,24.72-1.39,37.05c0.2,1.77,0.49,3.52,0.76,5.28c-0.5-1.71-0.88-3.46-1.25-5.2
			C349.92,170.69,350.48,157.79,354.17,145.83L354.17,145.83z"/>
	</g>
	<g>
		<path d="M326.16,152.68c-1.81,12.21-5.62,24.16-11.2,35.17C319.27,176.33,323.02,164.57,326.16,152.68L326.16,152.68z"/>
	</g>
	<g>
		<path d="M314.33,197.5c-1.03,12.96-5.23,25.71-12.14,36.73c0.69-1.47,1.4-2.93,2.04-4.42C308.93,219.5,312.2,208.62,314.33,197.5
			L314.33,197.5z"/>
	</g>
	<g>
		<path d="M323.98,229.56c-4.14,1.49-8.14,3.85-10.54,7.63c-1.79,2.9-4.25,5.45-7.17,7.23c-0.98,0.58-1.98,1.11-3.04,1.52
			c3.84-2.38,7.04-5.45,9.38-9.32C315.11,232.73,319.5,230.32,323.98,229.56L323.98,229.56z"/>
	</g>
	<g>
		<path d="M418.08,215.97c-14.12,1.39-28.05,4.09-41.69,7.99c-13.77,3.66-28.27,4.17-42.35,2.18c14.1,1.18,28.42,0.59,42.1-3.15
			C389.8,219.18,403.89,216.56,418.08,215.97L418.08,215.97z"/>
	</g>
	<g>
		<path d="M478.87,330.71c-8.25,14.08-15.25,28.84-20.75,44.15c-2.57,6.87-5.45,16.46-8.76,22.93c-3.7,7.41-9.03,13.91-15.17,19.48
			c-19.15,17.89-47.41,14.24-70.44,7.15c-7.75-2.53-15.54-5.25-22.65-9.27c7.28,3.63,15.12,6.11,22.93,8.33
			c22.6,6.23,50.33,9.8,68.84-7.71c5.95-5.32,11.23-11.63,14.87-18.79c3.63-7.18,5.92-15.06,8.95-22.65
			C462.52,359.06,469.91,344.37,478.87,330.71L478.87,330.71z"/>
	</g>
	<g>
		<path d="M336.53,411.84c-18.99-9.45-32.46-29.1-34.44-50.21c0.47,2.59,1.01,5.17,1.75,7.69
			C308.65,387.07,320.71,402.52,336.53,411.84L336.53,411.84z"/>
	</g>
	<g>
		<path d="M414.01,393.89c1.84,0.38,2.7,2.77,1.85,4.43c-0.74,1.7-3.08,2.6-4.57,1.48C413.88,398.73,415.06,396.86,414.01,393.89
			L414.01,393.89z"/>
	</g>
	<g>
		<path d="M405.91,397.08c-0.05,6.95,8.67,10.41,13.38,5.36c2.85-2.88,2.85-7.85,0-10.73C414.58,386.68,405.86,390.14,405.91,397.08
			L405.91,397.08z M405.91,397.08c-0.07-7.17,8.81-11.01,13.99-5.97c3.35,3.07,3.35,8.87,0,11.94
			C414.72,408.08,405.84,404.25,405.91,397.08L405.91,397.08z"/>
	</g>
	<g>
		<path d="M443.81,420.56c-0.52,6.83-3.25,13.55-7.99,18.54c-3.53,3.7-6.89,7.43-9.74,11.66c-0.99,1.38-1.9,2.81-2.81,4.24
			c2.87-6.19,7.09-11.69,11.81-16.57C439.77,433.52,442.52,427.19,443.81,420.56L443.81,420.56z"/>
	</g>
	<g>
		<path d="M440.9,441.1c-1.72,12.19-7.76,23.81-16.81,32.16c0.98-1.18,1.96-2.35,2.88-3.58C433.54,461.24,438.19,451.42,440.9,441.1
			L440.9,441.1z"/>
	</g>
	<g>
		<path d="M434.88,470.77c-2.34,16.26-9.09,31.94-19.3,44.82c1.11-1.73,2.23-3.44,3.26-5.21
			C426.32,498.15,431.63,484.71,434.88,470.77L434.88,470.77z"/>
	</g>
	<g>
		<path d="M302.09,424.5c1.85,7.04,4.81,13.49,8.92,19.5C305.82,438.92,302.54,431.75,302.09,424.5L302.09,424.5z"/>
	</g>
	<g>
		<path d="M312.57,455.1c6.01-1.73,12.8-1.08,18.36,1.76C324.85,455.35,318.83,454.77,312.57,455.1L312.57,455.1z"/>
	</g>
	<g>
		<path d="M337.26,461.02c7.32,3,14.01,7.7,19.3,13.59C350.31,469.72,343.96,465.25,337.26,461.02L337.26,461.02z"/>
	</g>
	<g>
		<path d="M362.05,480.31c4.91,5.5,8.56,12.18,10.68,19.24c1.98,7.02,2.26,14.64,5.58,21.17c1.1,2.14,2.51,4.15,4.08,6.01
			c1.56,1.87,3.33,3.57,5.29,5.03c-4.17-2.61-7.57-6.38-10.05-10.68c-3.58-6.62-3.92-14.19-5.78-21.3
			C369.81,492.79,366.48,486.14,362.05,480.31L362.05,480.31z"/>
	</g>
	<g>
		<path d="M362.16,531.77c-2.52-0.96-4.77-2.38-6.64-4.36C358.1,528.22,360.43,529.69,362.16,531.77L362.16,531.77z"/>
	</g>
	<g>
		<path d="M344.94,520.46c-8.7-2.62-17.68-4.07-26.77-4.36C327.24,515.01,336.68,516.54,344.94,520.46L344.94,520.46z"/>
	</g>
	<g>
		<path d="M349.19,527.83c-5.22-0.96-10.3-2.66-15.56-3.32c-3.93-0.33-7.94-0.13-11.89,0.19c-1.33,0.08-2.65,0.22-3.99,0.33
			c5.22-1.21,10.59-1.94,15.97-1.51C339.04,524.21,344.13,526.12,349.19,527.83L349.19,527.83z"/>
	</g>
	<g>
		<path d="M385.19,549.1c0.46,9.99-1.19,20.12-4.77,29.46c0,0,0.8-3.66,0.8-3.66C383.13,566.4,384.36,557.78,385.19,549.1
			L385.19,549.1z"/>
	</g>
	<g>
		<path d="M380.42,586.24c0.13,9.55,0.39,19.06,0.98,28.59c0.53,9.57-0.85,19.25-4.09,28.26c1.83-6.9,3-13.97,3.22-21.1
			C380.42,610.09,379.4,598.14,380.42,586.24L380.42,586.24z"/>
	</g>
	<g>
		<path d="M375.44,649.53c-2.49,10.05-5.61,20-9.03,29.78C368.52,669.15,371.65,659.17,375.44,649.53L375.44,649.53z"/>
	</g>
	<g>
		<path d="M355.65,616.2c-9.84,2.96-20.53,3.24-30.5,0.78c1.28,0.11,2.55,0.25,3.83,0.32C337.88,618.04,346.82,617.57,355.65,616.2
			L355.65,616.2z"/>
	</g>
	<g>
		<path d="M357.28,572.23c-4.7,1.1-9.63,1.22-14.38,0.37c-1.59-0.29-3.15-0.73-4.69-1.1c-4.58-1.22-9.39-1.46-14.09-0.81
			c-1.58,0.18-3.14,0.49-4.71,0.82c6.05-2.16,12.8-2.66,19.04-0.97C344.58,572.37,350.92,572.97,357.28,572.23L357.28,572.23z"/>
	</g>
	<g>
		<path d="M315.58,567.67c-2.34,1.48-5.5,1.65-7.99,0.42C310.37,567.93,312.79,567.81,315.58,567.67L315.58,567.67z"/>
	</g>
</g>
</svg>
