<?xml version="1.0" encoding="utf-8"?>
<!-- Generator: Adobe Illustrator 28.0.0, SVG Export Plug-In . SVG Version: 6.00 Build 0)  -->
<svg version="1.1" id="Capa_1" xmlns="http://www.w3.org/2000/svg" xmlns:xlink="http://www.w3.org/1999/xlink" x="0px" y="0px"
	 viewBox="0 0 595.28 841.89" style="enable-background:new 0 0 595.28 841.89;" xml:space="preserve">
<style type="text/css">
	.st0{fill:#666666;}
</style>
<g>
	<path d="M135.08,506.34c-2.72,6.85-4.73,13.94-6.15,21.13c-7.51,2.3-15.44,2.5-23.23,2.58c-23.12-0.18-46.97-6.19-65.41-20.66
		c0,0-1.12-0.87-1.12-0.87l0.61-1.33c5.73-12.79,9.53-26.61,11.99-40.42c3.21-17.97,1.55-36.14,3.07-54.72
		c3.28-42.83,20.34-82.94,61.78-101.04c22.33-10.22,45.65-17.91,68.34-27.06c14.97-6.2,30.3-12.16,44.93-19.08
		c14.95-7.04,26.5-18.84,33.25-33.99c-3.08,7.54-7.2,14.76-12.76,20.85c-11.08,12.36-27,18.7-41.76,25.38
		c-22.15,10.33-45.13,19.18-67.75,28.3c-14.79,6.17-30.16,12.03-42.64,22.17c-18.91,14.94-29.91,37.75-35.01,61
		c-1.65,7.85-2.87,15.82-3.55,23.85c-1.36,16.23-0.39,32.67-2.64,48.94c-2.39,16.39-6.95,32.34-13.95,47.37c0,0-0.51-2.2-0.51-2.2
		c17.68,14.38,40.65,20.68,63.16,21.72c7.52,0.21,15.28,0.25,22.61-1.63c0,0-0.32,0.36-0.32,0.36
		C129.68,519.89,132.1,512.97,135.08,506.34L135.08,506.34z"/>
</g>
<g>
	<path d="M109.18,434.66c10.92,19.83,20.06,40.91,25.57,62.96c1.93,7.33,3.36,14.76,5.75,21.72c1.83,6.03,6.63,14.46,9.49,20.19
		c3.42,6.75,6.79,13.54,9.8,20.56c3.81,8.8,6.89,18,8.55,27.48c0.61,3.7,1.68,13.1,2.16,16.97c1.66,15.08,3.16,30.14,3.39,45.35
		c0.12,9.38-0.19,19.49-3.79,28.59c-0.24,0.63-0.55,1.8-0.67,2.47c-0.71,3.47-0.18,7.05,0.22,10.56c1.08,9.56,1.78,19.41-0.75,28.84
		c-0.89,2.7-1.99,5.43-3.03,8.07c-7.91,17.07-11.58,35.92-9.69,54.72c-2.55-15.04-1.25-30.49,3.07-45.1
		c1.22-3.63,2.69-7.05,3.94-10.64c0.91-2.59,1.89-5.27,2.66-7.92c2.24-9.93,0.9-20.29-0.52-30.26c-0.41-2.97-0.64-6.1-0.06-9.07
		c0.15-0.86,0.47-2.15,0.76-2.99c3.25-8.64,3.39-17.79,3.14-27.19c-0.37-14.93-1.94-29.92-3.62-44.86
		c-0.82-6.39-1.56-15.93-3.12-22.12c-3.36-14.48-9.86-28.11-16.34-41.51c-2.87-5.86-7.54-14.63-9.28-20.93
		c-2.11-6.64-3.72-15.4-5.23-22.17C126.86,476.27,118.65,455.2,109.18,434.66L109.18,434.66z"/>
</g>
<g>
	<path class="st0" d="M157.63,327.28c18.64,5.81,38.36,10.7,57.58,14.42C195.36,340.69,175.62,335.74,157.63,327.28L157.63,327.28z"
		/>
</g>
<g>
	<path class="st0" d="M242.39,350.52c3.55,4.31,5.17,10.26,4.25,15.77C244.79,361.1,243.41,355.94,242.39,350.52L242.39,350.52z"/>
</g>
<g>
	<path class="st0" d="M251.57,391.45c7.72,26.51,3.9,56.19-10.2,79.94c-4.65,7.95-10.42,15.21-17.03,21.53
		c6.05-6.86,11.32-14.34,15.68-22.3C253.27,446.68,256.99,418.19,251.57,391.45L251.57,391.45z"/>
</g>
<g>
	<path class="st0" d="M239.28,707.05c6.46,3.37,10.81,10.76,10.58,18.05C247.3,718.46,243.83,712.52,239.28,707.05L239.28,707.05z"
		/>
</g>
<g>
	<path class="st0" d="M297.79,463.5c1.34,80.31,1.35,161.52,0,241.83C296.45,625.02,296.46,543.82,297.79,463.5L297.79,463.5z"/>
</g>
<g>
	<path class="st0" d="M298.21,298.96c1.37,36.3,1.38,72.64,0,108.93C296.83,371.6,296.84,335.25,298.21,298.96L298.21,298.96z"/>
</g>
<g>
	<path d="M460.19,506.34c2.98,6.63,5.4,13.54,7.05,20.66l-0.32-0.36c7.33,1.87,15.08,1.83,22.61,1.63
		c22.51-1.03,45.48-7.33,63.16-21.72c0,0-0.51,2.2-0.51,2.2c-6.99-15.04-11.56-30.98-13.95-47.37c-2.25-16.27-1.28-32.71-2.64-48.94
		c-0.68-8.03-1.9-16-3.55-23.85c-5.1-23.24-16.1-46.06-35.01-61c-12.48-10.15-27.85-16-42.64-22.17
		c-22.62-9.13-45.61-17.97-67.75-28.3c-14.76-6.68-30.68-13.01-41.76-25.38c-5.56-6.09-9.68-13.31-12.76-20.85
		c3.43,7.4,7.91,14.31,13.54,20.12c5.58,5.88,12.52,10.22,19.71,13.87c14.64,6.92,29.97,12.87,44.93,19.08
		c22.69,9.15,46.02,16.84,68.34,27.06c41.42,18.08,58.51,58.23,61.77,101.04c1.52,18.58-0.14,36.74,3.07,54.71
		c2.46,13.81,6.26,27.64,11.99,40.42c0,0,0.61,1.33,0.61,1.33l-1.12,0.87c-18.44,14.47-42.29,20.48-65.41,20.66
		c-7.79-0.08-15.72-0.28-23.23-2.58C464.92,520.28,462.92,513.19,460.19,506.34L460.19,506.34z"/>
</g>
<g>
	<path d="M486.09,434.66c-9.47,20.54-17.67,41.61-22.39,63.72c-1.52,6.82-3.14,15.62-5.23,22.17c-1.73,6.32-6.37,14.95-9.28,20.93
		c-6.48,13.39-12.98,27.03-16.34,41.51c-1.55,6.14-2.31,15.72-3.12,22.12c-1.69,14.94-3.26,29.94-3.62,44.86
		c-0.26,9.4-0.12,18.54,3.14,27.19c0.28,0.82,0.62,2.13,0.76,3c0.77,3.94,0.1,8.04-0.46,11.94c-1.27,9.02-2.14,18.44-0.13,27.4
		c0.77,2.64,1.75,5.32,2.66,7.92c1.25,3.59,2.72,7.01,3.94,10.64c4.32,14.61,5.62,30.07,3.07,45.1c1.88-18.8-1.78-37.65-9.69-54.72
		c-1.04-2.64-2.15-5.37-3.03-8.07c-2.53-9.43-1.83-19.28-0.75-28.84c0.39-3.51,0.93-7.09,0.22-10.56c-0.11-0.7-0.44-1.78-0.67-2.47
		c-3.59-9.1-3.91-19.2-3.79-28.59c0.23-15.21,1.74-30.27,3.39-45.35c0.49-3.81,1.53-13.22,2.16-16.97
		c1.66-9.48,4.74-18.68,8.55-27.48c3.01-7.01,6.38-13.81,9.8-20.56c2.83-5.59,7.65-14.18,9.49-20.19c2.39-6.96,3.82-14.4,5.75-21.72
		C466.03,475.57,475.17,454.49,486.09,434.66L486.09,434.66z"/>
</g>
<g>
	<path class="st0" d="M437.64,327.28c-17.99,8.46-37.73,13.41-57.58,14.42C399.3,337.98,418.99,333.09,437.64,327.28L437.64,327.28z
		"/>
</g>
<g>
	<path class="st0" d="M352.88,350.52c-1.02,5.42-2.4,10.58-4.25,15.77C347.72,360.78,349.34,354.83,352.88,350.52L352.88,350.52z"/>
</g>
<g>
	<path class="st0" d="M343.7,391.45c-5.41,26.74-1.69,55.23,11.56,79.17c4.36,7.96,9.63,15.44,15.68,22.3
		c-6.61-6.32-12.39-13.58-17.03-21.53C339.8,447.64,335.99,417.96,343.7,391.45L343.7,391.45z"/>
</g>
<g>
	<path class="st0" d="M356,707.05c-4.55,5.47-8.02,11.41-10.58,18.05C345.18,717.81,349.53,710.41,356,707.05L356,707.05z"/>
</g>
<g>
	<path d="M350.51,256.37c-1.68-11.31-2.18-22.79-1.43-34.21c0.48-7.51,1.59-14.97,3.09-22.35c0.08-1.11,1.5-1.57,2.19-0.71
		c1.83,2.3,4.02,6.3,7.44,4.91c5.02-2.01,5.11-9.02,6.42-13.77c1.37-5.49,3.74-10.81,4.87-16.38c0.87-4.15,3.63-16.17-1.7-17.71
		c-0.23-0.08-0.31-0.05-0.7,0.04c-1.78,0.53-3.47,1.63-5.09,2.68c-0.94,0.64-1.83,1.5-3.09,0.91c-0.65-0.28-1.16-1.01-1.18-1.76
		c0.07-0.95,0.1-0.62,0.1-0.74l0.03-0.13l0.07-0.25l0.53-2.03c8.37-32.08-1.21-70.57-32.53-86.21c-9.93-4.96-20.69-7.63-31.89-7.4
		c-51.42,0.07-76.23,47.09-64.41,93.61c0.07,0.32,0.57,2.15,0.63,2.41c-0.01,0.12,0.03-0.21,0.1,0.75
		c-0.02,0.75-0.53,1.48-1.18,1.76c-0.65,0.32-1.5,0.21-1.99-0.14l-0.26-0.19l-0.84-0.58c-1.77-1.1-3.65-2.45-5.61-2.77
		c-2.44,0.44-3.1,3.26-3.27,5.57c-0.48,9.85,3.69,19.25,6.27,28.57c1.3,4.75,1.41,11.75,6.41,13.76c3.21,1.34,5.46-2.27,7.14-4.53
		c0.09-0.11,0.2-0.26,0.3-0.37c0.45-0.62,1.56-0.6,1.99,0.11c4.24,18.63,4.65,38.24,1.86,57.16c1.87-18.4,0.88-37.09-3.42-55.08
		c0,0-0.24-1.04-0.24-1.04l-0.03-0.13c0.18,0.53,0.88,0.87,1.42,0.34c0,0-0.06,0.08-0.06,0.08c-0.04,0.06-0.08,0.1-0.13,0.18
		c-1.24,1.84-2.49,3.82-4.54,5.09c-3.01,1.94-7.14,0.35-9.1-2.36c-3.53-4.88-3.46-11.13-5.6-16.44c-2.97-8.03-8.74-23.72-4.1-31.55
		c0.95-1.55,2.61-2.6,4.38-2.98c1.63-0.28,3.15,0.37,4.48,0.96c1.75,0.83,3.32,1.8,4.88,2.85c0,0,0.17,0.12,0.17,0.12
		c-0.42-0.3-1.17-0.41-1.74-0.12c-0.57,0.25-1.02,0.89-1.04,1.55c0.06,0.87,0.07,0.45,0.04,0.49l-0.04-0.13l-0.07-0.26
		c-14.68-49.89,12.05-101.41,67.6-101.68c54.6,0.35,81.56,49.97,68.19,99.58c-0.07,0.33-0.63,2.22-0.69,2.5
		c-0.03-0.04-0.02,0.38,0.04-0.48c-0.02-0.66-0.47-1.3-1.04-1.55c-0.56-0.28-1.31-0.18-1.73,0.12l0.17-0.12l0.93-0.62
		c2.55-1.48,5.23-3.53,8.43-3.2c1.28,0.3,2.58,0.9,3.49,1.87c4.57,5.15,2.18,14.29,0.83,20.28c-1.29,5.61-3.7,10.76-5.26,16.28
		c-0.69,2.71-1.22,5.55-2.22,8.39c-1.35,4.61-6.28,9.4-11.26,6.49c-2.17-1.33-3.36-3.42-4.73-5.34c-0.09-0.1,0.16,0.18,0.32,0.21
		c0.38,0.14,0.79-0.01,0.99-0.32c0.11-0.18,0.13-0.34,0.1-0.22l-0.03,0.13l-0.24,1.04C349.62,219.28,348.64,237.97,350.51,256.37
		L350.51,256.37z"/>
</g>
</svg>
