<?xml version="1.0" encoding="UTF-8"?>
<svg id="Capa_1" data-name="Capa 1" xmlns="http://www.w3.org/2000/svg" viewBox="0 0 595.28 841.89">
  <defs>
    <style>
      .cls-1 {
        fill: #7c7c7c;
      }

      .cls-1, .cls-2 {
        stroke-width: 0px;
      }

      .cls-2 {
        fill: #828282;
      }
    </style>
  </defs>
  <path class="cls-1" d="m96.4,734.49c24.87-42.43,35.95-93.04,30.02-141.91,0,0-.74-5.61-.74-5.61l-1.14-5.53c-.29-1.71-.81-3.86-1.29-5.5,0,0-1.53-5.43-1.53-5.43-.76-2.58-1.94-5.41-2.81-7.98-.7-1.61-2.56-6.08-3.34-7.78,0,0-2.54-5.05-2.54-5.05-5.16-10.11-11.42-19.58-17.44-29.22-10.16-16.03-19.61-32.7-27.08-50.2-30.54-70.1-49.48-151.92-16.11-224.49,38.51-83.05,128.06-137.02,218.52-140.61,74.45-3.11,151.14,26.54,199.84,83.8,8.88,10.19,15.83,21.9,21.55,34.08,14.81,30.15,39.67,107.55,27.65,139.03-2.21,5.27-5.59,10.16-7.82,15.22-6.52,14.08-1.71,28.57,5.38,41.57,8.34,15.51,19.51,33.87,28.6,49.01,1.99,3.2,4.04,6.37,6.09,9.59,4.13,6.54,8.77,13.78,8.12,22.01-.51,6.11-2.93,12.99-9.01,15.58-9.98,4.56-25.37.44-30.29,12.64-1.23,2.76-1.51,5.78-.83,8.76,1.83,7.27,7.87,14.16,5.86,22.26-2.45,10.25-13.26,15.06-22.33,17.91,0,0,.23-2.61.23-2.61,3.83,2,8.1,4.51,10.28,8.57,2.3,4.17,2.42,9.61-.5,13.49-3.43,4.79-8.1,7.97-11.35,12.72-5.05,6.93-6.34,15.02-3.52,23.17,1.7,5.4,3.7,11.01,3.9,16.8.33,17.6-11.13,33.75-25.6,42.84-9.95,6.36-22.05,8.16-33.21,4.06-10.73-3.69-20.68-9.58-32.05-11.02-23.03-3.43-44.66,9.72-59.78,26.11,11.41-12.48,25.86-23.3,42.82-26.46,29.55-5.81,43.72,14.86,65.88,11.9,16.61-2.72,30.37-16.01,36.76-31.16,4.94-11.93,3.25-20.74-.96-32.39-4.43-12.32.34-23.32,9.37-31.92,2.84-2.99,6.07-5.56,7.07-9.53,1.24-7.39-4.37-11.73-10.41-14.66,0,0-3.05-1.57-3.05-1.57l3.28-1.03c9.48-2.85,22.33-9.24,20.29-20.91-1.45-7.18-7.7-14.11-6.38-22.07.66-4.1,2.59-8.04,5.71-10.86,7.52-6.78,18.73-4.44,27.34-8.14,4.93-2.11,6.44-7.78,6.93-12.7.47-7.31-3.86-13.73-7.69-19.78-7.23-10.8-17.01-27.52-23.89-38.82-3.89-6.53-7.75-13.08-11.35-19.84-3.59-6.89-7.09-13.95-8.42-21.76-1.34-7.86-.59-16.23,2.75-23.49,3.18-7.28,7.98-13.28,9.28-20.22.75-3.5,1.13-7.17,1.19-10.88.27-11.23-1.23-22.39-3.19-33.47-5.54-29.55-14.74-58.65-27.5-85.87-4.9-10.12-10.21-19.97-17.36-28.66,0,0-3.56-4.36-3.56-4.36l-3.72-4.22c-47.87-53.32-121.19-80.61-192.23-77.81-88.57,3.42-176.87,56.28-214.82,137.49-33.19,71.51-14.83,152.16,14.87,221.57,7.32,17.44,16.54,33.94,26.57,50.01,5.96,9.68,12.16,19.36,17.25,29.56,0,0,2.52,5.15,2.52,5.15.75,1.91,2.64,6.06,3.31,7.94.9,2.58,1.97,5.54,2.77,8.14,0,0,1.5,5.54,1.5,5.54.92,3.39,1.66,7.8,2.34,11.22,0,0,.7,5.68.7,5.68,5.46,49.15-6.12,99.9-31.73,142.12h0Z"/>
  <path class="cls-1" d="m308.91,445.9c4.56-10.93,6.44-22.95,4.76-34.64-4.39-27.65-23.58-54.26-54.03-39.4-13.9,7.02-23.33,19.85-24.64,35.51-.85,7.68-.27,15.48.53,23.2,1.2,13.59,3.59,27.11,9.05,39.67,3.48,8.38,10.25,17.29,15.11,25.05,4.32,6.35,8.5,13.38,13.62,18.95,2.6,2.66,6.08,4.21,9.48,5.62,2.64,1.06,5.35,1.77,8.14,2.09,9.26,1.24,15.03-6.06,17.37-14.25,2.19-7.4,2.43-15.39,2.14-23.23-.31-7.89-1.43-15.74-2.56-23.59,1.63,7.77,3.25,15.56,3.94,23.49,1.34,13.72.78,37.34-16.34,40.72-7.85,1.09-15.77-1.91-22.38-5.99-2.61-1.81-4.73-4.35-6.63-6.75-3.7-4.73-7.05-9.7-10.42-14.64-3.92-6-9.63-13.83-13.15-20.03-5.75-10.75-9.02-22.71-10.9-34.71-1.98-16-4.47-32.63.85-48.28,5.63-15.66,20.43-27.63,36.71-30.62,23.43-3.78,38.19,14.48,43.73,35.1,4.65,15.41,2.88,32.4-4.37,46.71h0Z"/>
  <path class="cls-1" d="m293.25,440.62c2.36.29,5.49,1.82,5.27,4.73-.25,2.54-1.88,4.68-2.61,6.96-.54,1.46-.85,2.95-.94,4.45-.28,4.53,1.36,9.07,3.75,12.9.99,1.68,2.6,3.2,3.64,5.12,2.6,5.58-4.96,9.73-9.64,8.36-3.08-.58-5.13-4.21-6.17-6.39-1.81-3.65-4.45-7.11-8.81-7.07-5.64.52-11.14-2.41-14.58-6.75-10.15-12.22-5.05-28.1,6.43-37.27,2.56-2.15,5.8-3.77,8.89-4.87,3.01-1.1,5.86-2.5,8.67-4.09,2.78-1.69,5.88-2.83,8.45-4.85-2.21,2.41-5.14,4-7.69,6.02-2.62,1.96-5.48,3.71-8.44,5.18-8.38,3.71-14.86,11.7-16.86,20.57-1.26,5.75.61,11.77,4.3,16.19,1.82,2.17,4.23,3.9,6.7,4.58,1.94.63,4.86.07,7.18.74,4.68,1.17,8.17,5.36,9.97,9.52,1.23,2.45,1.88,4.65,4.67,4.34,1.34-.13,3.06-.97,3.45-2.08.04-.1-.13-.61-.53-1.21-4.01-5.34-6.86-12.34-5.8-19.2.48-3.37,2.32-6.44,4.06-9.2,2.22-3.23-.05-5.68-3.35-6.66h0Z"/>
  <path class="cls-1" d="m281.76,437.94c5.28-6.31,9.08-13.59,11.19-21.52,2.37-7.43,3.34-15.74-.89-22.52-5.13-8.5-19.82-15.6-29.21-10.89-3.33,1.64-5.66,4.62-7.77,7.72-2.18,3.27-4.5,6.74-6.32,10.23-3.61,6.99-5.58,14.76-5.48,22.64.49,12.01,3.81,24.02,8.43,35.11,3.2,7.49,7.32,14.61,12.05,21.37-8.39-9.13-15.04-20.06-19.31-31.77-6.04-16.78-8.6-33.08-.04-49.56,3.1-5.68,6.24-11.14,10.66-15.98,4.71-5.15,12.62-7.2,19.22-5.57,13.1,3.05,24.97,13.23,23.98,27.63-.26,4.38-1.53,8.5-3,12.38-2.76,7.82-7.39,15.14-13.51,20.74h0Z"/>
  <path class="cls-2" d="m296.63,402.89c-5.3,6.43-13.95,9.94-22.21,8.43,4.9-1.02,9.7-2.17,14.25-4.18,2.72-1.27,5.19-2.95,7.96-4.26h0Z"/>
</svg>