<?xml version="1.0" encoding="UTF-8"?>
<svg id="Capa_1" data-name="Capa 1" xmlns="http://www.w3.org/2000/svg" viewBox="0 0 595.28 417.57">
  <defs>
    <style>
      .cls-1 {
        fill: #7c7c7c;
      }

      .cls-1, .cls-2 {
        stroke-width: 0px;
      }

      .cls-2 {
        fill: #828282;
      }
    </style>
  </defs>
  <path class="cls-1" d="m556.27,350.86c-21.88-32.72-44.95-64.57-71.12-93.93-8.77-9.82-17.95-19.46-25.5-30.35-3.79-5.44-7.22-11.16-10.51-16.9-24.54-41.04-36.88-87.31-14.94-132.35-4.74,12.25-7.72,25.12-8.37,38.11-.05,2.85-.31,6.94-.12,9.73.51,22.76,7.91,44.83,18.24,64.94,9.02,17.24,18.83,34.25,31.75,48.93,31,34.01,58.2,71.63,80.58,111.82h0Z"/>
  <path class="cls-1" d="m530.16,351.9c-14.89-7.55-30.25-13.86-46.09-18.66-15.85-4.96-31.78-9.47-48.13-10.5-26.66-2.06-53.51,5.01-76.64,18.25-5.39,3.13-10.64,6.47-15.71,10.13,3.05-2.85,6.25-5.55,9.59-8.08,8.35-6.37,17.52-11.72,27.19-15.85,25.69-11.07,54.02-12.41,80.94-5.26,24.2,6.58,48.07,15.86,68.84,29.97h0Z"/>
  <path class="cls-2" d="m270.03,305.35c2.45,15.68-.02,32.26-6.93,46.54,4.27-15.21,6.6-30.75,6.93-46.54h0Z"/>
  <path class="cls-1" d="m288.68,75.21c-18.26,36.16-49.91,64.94-86.31,82.29-14.28,6.69-29.35,11.93-44.82,14.94,6.57-2.39,13.09-4.82,19.48-7.55,45.45-18.84,83.64-49.14,111.65-89.68h0Z"/>
  <path class="cls-1" d="m83.73,94.22c-4.67.67-9.52.4-14.1-1.02-2.22-.63-4.27-2.11-6.52-2.41-1.09-.11-2.21.08-3.26.4-9.35,3.66-13.92,16.8-9.03,25.49.79,1.19,1.87,2.19,3.25,2.28,1.72-.06,3.82-.27,5.54.31,4.39,1.24,8.26,4.41,10.17,8.61,2.47,6.76-2.35,13.29-3.37,19.75-1.83,8.76-1.55,18.38,1.89,26.67,3.35,8.39,10.86,14.13,19.22,17.14,4.17,1.68,8.47,2.3,13,2.1,9.2-.37,18.47-2.15,27.52-4.11,9.16-2.02,18.23-4.41,27.33-6.94,4.57-1.21,9.21-2.53,14.21-3.08,4.96-.55,10-.03,14.84,1.01,9.56,2.21,19.13,6.16,26.24,13.12,6.74,7.05,11.13,15.88,15.52,24.44,4.18,8.53,8.25,17.16,11.59,26.05,7.97,22.32,16.52,44.34,23.13,67.07,2.34,9.25,2.34,19.15-.29,28.33-1.31,4.57-3.19,8.96-5.52,13.06,9.4-19.13,7.28-35.2-.65-54.19-6.23-15.77-14.08-37.44-20.3-52.85-2.3-6.04-5.95-13.33-8.72-19.2-3.09-6.28-6.3-12.58-9.94-18.52-3.64-5.87-7.48-11.3-13.3-14.92-9.4-5.86-20.98-9.51-32.07-8.48-4.39.49-8.88,1.76-13.43,2.98-13.7,3.72-27.58,7.31-41.66,9.54-9.54,1.39-19.9,2.8-29.11-1.15-9.27-3.43-17.92-10.32-21.48-19.81-3.61-9.28-3.71-19.47-1.53-29.05.55-2.39,1.33-4.72,2.14-6.96,1.35-4.03,3.63-8.32,1.19-12.18-2.16-3.46-6.24-6.34-10.42-6.17-1.18.13-3,.08-4.11-.64-1.3-.69-2.27-1.79-2.95-2.94-4.7-9-.82-20.84,7.39-26.33,2.07-1.35,4.61-2.19,7.1-1.86,2.47.42,4.34,1.96,6.63,2.73,4.37,1.62,9.16,2.16,13.85,1.73h0Z"/>
  <path class="cls-1" d="m42.13,77.31c4.93,3.53,7.69,6.73,11,11.27,1.15,1.37,1.51,2.82,3.72,3.1,0,0,.31.39.31.39-1.67,1.49-4.17.9-5.91-.09-5.22-3-9.03-8.6-9.62-14.61,0,0,.5-.06.5-.06h0Z"/>
</svg>