<?xml version="1.0" encoding="UTF-8"?>
<svg id="Capa_1" data-name="Capa 1" xmlns="http://www.w3.org/2000/svg" viewBox="0 0 595.28 417.57">
  <defs>
    <style>
      .cls-1 {
        fill: #7c7c7c;
      }

      .cls-1, .cls-2 {
        stroke-width: 0px;
      }

      .cls-2 {
        fill: #828282;
      }
    </style>
  </defs>
  <path class="cls-1" d="m39,350.8c19.42-35.62,42.08-69.68,68.2-100.8,8.68-10.28,17.79-20.14,25.16-31.38,3.76-5.54,7.12-11.29,10.42-17.14,16.68-28.95,29.44-60.93,27.4-94.9-.68-13.37-3.66-26.64-8.42-39.29,5.78,12.23,9.48,25.51,10.86,39.09,3.64,34.36-8.73,68.07-25.58,97.48-3.3,5.94-6.73,11.89-10.53,17.54-7.56,11.35-16.84,21.44-25.72,31.66-26.5,30.61-49.76,63.74-71.78,97.73h0Z"/>
  <path class="cls-1" d="m65.27,351.88c17.28-12.13,36.9-20.73,56.97-27.29,14.13-4.76,28.9-8.02,43.88-8.29,32.04-.74,63.9,12.71,86.76,34.78-13.52-10.02-28.27-18.23-44.02-23.4-33.35-11.24-64.62-6.43-97.29,4.82-15.95,5-31.37,11.56-46.3,19.39h0Z"/>
  <path class="cls-2" d="m326.85,303.63c.33,16.35,2.66,32.47,6.97,48.24-6.96-14.88-9.42-32-6.97-48.24h0Z"/>
  <path class="cls-1" d="m308.09,65.1c27.52,41.31,66.43,73.58,112.12,92.94,6.47,2.83,13.08,5.36,19.75,7.84-6.97-1.41-13.84-3.33-20.63-5.54-47.39-15.81-89.13-50.17-111.24-95.23h0Z"/>
  <path class="cls-1" d="m514.2,84.8c4.8.45,9.71-.12,14.14-1.86,2.32-.82,4.24-2.5,6.8-2.78,2.61-.24,5.11.78,7.17,2.21,8.1,5.99,11.74,18,6.97,27.17-1.53,2.7-4.17,3.95-7.22,3.5-5.11,0-10.5,4.43-11.32,9.51-.27,3.38,1.23,6.45,2.32,9.78.8,2.3,1.58,4.68,2.11,7.13,2.14,9.79,2.04,20.14-1.46,29.66-3.44,9.74-12.07,17.05-21.5,20.68-4.7,2.06-9.97,2.92-15.03,2.73-7.49-.17-14.67-1.42-21.93-2.8-11.88-2.38-23.66-5.51-35.3-8.8-6.93-1.95-13.4-3.71-20.44-2.83-9.13.99-18.14,4.36-25.65,9.64-9.31,7.03-14.3,18.47-19.64,28.65-12.55,24.93-21.87,54.39-31.91,80.53-7.83,19.34-9.74,36.12-.43,55.56-2.33-4.23-4.21-8.73-5.52-13.41-2.64-9.4-2.71-19.48-.45-28.97,1.07-4.77,2.57-9.41,4.09-13.99,6.19-18.3,12.29-36.6,18.85-54.81,3.26-9.17,7.31-18,11.43-26.81,5.52-10.88,10.7-23,20.76-30.62,6.17-4.42,13.18-7.49,20.51-9.32,4.93-1.21,10.02-1.87,15.13-1.48,5.18.41,9.95,1.8,14.62,3.06,9.28,2.65,18.5,5.2,27.89,7.33,9.21,2.08,18.71,3.97,28.11,4.36,4.63.23,9.03-.45,13.25-2.24,8.53-3.2,16.02-9.31,19.27-17.97,3.37-8.56,3.64-18.37,1.84-27.38-1.04-7.15-6.76-14.85-2.67-22.03,2.83-4.54,7.64-7.99,13.17-7.81,4.89,1.09,6.61-4.52,7.02-8.47,1.18-8.13-4.86-20.65-13.94-20.72-2.32.17-4.38,1.78-6.62,2.45-4.65,1.56-9.63,1.85-14.4,1.16h0Z"/>
  <path class="cls-1" d="m556.52,67.32c4.5,6.71-.95,15.6-8.06,17.75-2.4.84-6.9.52-7.56-2.53,0,0,.32-.39.32-.39,4.7,2.91,11.15-5.52,12.94-9.28.85-1.78,1.52-3.67,1.86-5.62,0,0,.5.05.5.05h0Z"/>
</svg>