<?xml version="1.0" encoding="UTF-8"?>
<svg id="Capa_1" data-name="Capa 1" xmlns="http://www.w3.org/2000/svg" viewBox="0 0 595.28 417.57">
  <defs>
    <style>
      .cls-1 {
        fill: #7c7c7c;
        stroke-width: 0px;
      }
    </style>
  </defs>
  <path class="cls-1" d="m107.5,34.98c1.13,10.63,3.44,20.65,7.05,30.54,2.76,8.05,7.28,15.25,13.58,20.96,3.46,3.33,7.73,6.29,12.72,5.9,3.25-.16,6.45-1.75,9.27-3.93-2.02,2.93-5.08,5.39-8.87,6.35-7.85,1.94-14.87-3.48-20.11-8.68-12.21-11.93-16.51-34.8-13.63-51.14h0Z"/>
  <path class="cls-1" d="m174.63,115.79c14.46,52.19,18.35,119.46-6.5,168.94-3.8,7.31-8.2,14.3-13.4,20.61,4.29-6.96,8.05-14.18,11.17-21.65,21.21-51.92,16.78-113.43,8.73-167.91h0Z"/>
  <path class="cls-1" d="m145.58,92c4.98,14.1,8.52,28.78,10.42,43.65,1.12,7.25,1.13,14.63,3.11,21.7,4.78,16.56,14.49,30.87,24.48,44.88-14.32-13.31-27.87-31.33-30.84-51.18-1.06-9.99-1.82-19.67-3.04-29.58-1.1-9.8-2.9-19.55-4.13-29.47h0Z"/>
  <path class="cls-1" d="m204.79,236.8c-7.96,23.15-21.52,44.58-38.89,61.95-17.4,17.51-39.47,29.46-60.6,41.54-14.21,7.89-28.85,15.55-44.52,20.1,14.94-6.51,28.74-14.95,42.55-23.46,12.07-7.66,29.47-17.94,40.81-26.24,26.3-18.76,46.4-44.93,60.66-73.89h0Z"/>
  <path class="cls-1" d="m487.78,34.98c2.88,16.32-1.42,39.22-13.63,51.14-5.24,5.19-12.27,10.61-20.11,8.68-3.79-.96-6.85-3.42-8.87-6.35,2.82,2.17,6.02,3.76,9.27,3.93,4.99.39,9.25-2.57,12.72-5.9,6.3-5.71,10.82-12.91,13.58-20.96,3.62-9.89,5.92-19.91,7.05-30.54h0Z"/>
  <path class="cls-1" d="m420.64,115.79c-8.05,54.46-12.48,115.99,8.73,167.91,3.12,7.47,6.87,14.69,11.17,21.65-5.2-6.32-9.6-13.31-13.4-20.61-24.85-49.47-20.97-116.73-6.51-168.94h0Z"/>
  <path class="cls-1" d="m449.69,92c-1.22,9.92-3.03,19.67-4.13,29.47-1.22,9.91-1.98,19.59-3.04,29.58-2.97,19.86-16.52,37.86-30.84,51.18,9.99-14.01,19.7-28.32,24.48-44.88,1.98-7.07,1.99-14.45,3.11-21.7,1.9-14.87,5.44-29.55,10.42-43.65h0Z"/>
  <path class="cls-1" d="m390.49,236.8c14.26,28.96,34.36,55.12,60.66,73.88,11.27,8.26,28.82,18.63,40.8,26.24,13.81,8.51,27.61,16.95,42.54,23.46-15.67-4.55-30.31-12.2-44.52-20.1-21.13-12.08-43.2-24.03-60.6-41.54-17.37-17.37-30.93-38.81-38.89-61.95h0Z"/>
</svg>